<svg width="16" height="16" viewBox="0 0 16 16" fill="none" xmlns="http://www.w3.org/2000/svg">
<g clip-path="url(#clip0_0_1393)">
<path d="M7.34678 0.727295C9.47749 0.727295 11.2935 2.2846 11.7032 4.40735C13.7629 4.82969 15.2727 6.70221 15.2727 8.89789C15.2727 11.4269 13.284 13.477 10.8307 13.477C10.1807 13.477 9.55046 13.3329 8.97331 13.0587L8.95849 13.0845C8.156 14.4332 6.7328 15.2727 5.16932 15.2727C2.71606 15.2727 0.727295 13.2226 0.727295 10.6936C0.727295 8.97548 1.6535 7.42808 3.0972 6.64221C2.9701 6.21361 2.90476 5.76467 2.90476 5.30642C2.90476 2.77744 4.89352 0.727295 7.34678 0.727295ZM6.82648 12.6322L6.73181 12.7142C6.41026 12.9788 6.03001 13.1587 5.62177 13.2355L5.49848 13.2554L5.49831 14.5798C6.28884 14.5096 7.02678 14.1868 7.62121 13.6648L7.73097 13.5646L6.82648 12.6322ZM3.58219 12.6936L2.6759 13.6278C3.24036 14.138 3.9382 14.4652 4.6894 14.5633L4.84032 14.5798L4.84015 13.2554C4.41735 13.1982 4.02034 13.0312 3.68192 12.7736L3.58219 12.6936ZM2.68423 11.0328L1.39948 11.0328C1.46009 11.7581 1.71475 12.4413 2.12908 13.0164L2.2203 13.138L3.13191 12.199C2.91929 11.8938 2.77356 11.5445 2.70592 11.1731L2.68423 11.0328ZM8.93917 11.0328L7.65443 11.0327L7.63467 11.1623C7.58124 11.4628 7.4767 11.7491 7.32676 12.0097L7.25973 12.1198L8.17511 13.0635C8.5811 12.5172 8.8406 11.8705 8.924 11.1811L8.93917 11.0328ZM9.59017 11.1435L9.57105 11.313C9.51939 11.7067 9.41857 12.0893 9.27155 12.4531C9.6098 12.6111 9.96961 12.7169 10.3416 12.7663L10.5017 12.7841L10.5016 11.4597C10.2254 11.4223 9.95963 11.338 9.71227 11.2107L9.59017 11.1435ZM12.4879 10.8365C12.1474 11.1461 11.7322 11.3553 11.2832 11.4397L11.1599 11.4597L11.1597 12.7841C11.9503 12.7139 12.6882 12.3911 13.2826 11.8691L13.3924 11.7689L12.4879 10.8365ZM5.16932 8.78815C4.14847 8.78815 3.32089 9.64126 3.32089 10.6936C3.32089 11.746 4.14847 12.5991 5.16932 12.5991C6.19018 12.5991 7.01774 11.746 7.01774 10.6936C7.01774 9.64126 6.19018 8.78815 5.16932 8.78815ZM14.6006 9.23701L13.3158 9.23692L13.2961 9.36655C13.2427 9.66707 13.1381 9.95336 12.9882 10.214L12.9211 10.3241L13.8365 11.2678C14.2425 10.7215 14.502 10.0748 14.5854 9.38538L14.6006 9.23701ZM9.51661 10.9417L9.51892 10.9138L9.5196 10.8928L9.51661 10.9417ZM11.4363 7.097L11.3753 7.2382C10.9969 8.07536 10.3786 8.77819 9.60627 9.24966L9.46839 9.33045L9.41917 9.35723C9.51089 9.66757 9.57047 9.98837 9.59642 10.3155C9.93227 10.6275 10.3679 10.8034 10.8307 10.8034C11.8516 10.8034 12.6792 9.95026 12.6792 8.89789C12.6792 8.10928 12.2102 7.41494 11.5202 7.12929L11.4363 7.097ZM9.52206 10.563L9.52345 10.6402L9.52316 10.5923L9.52206 10.563ZM9.59913 10.3515L9.51232 10.3577L9.5534 10.3952L9.60186 10.3919L9.59913 10.3515ZM9.51232 10.3577C9.51315 10.3692 9.51381 10.3802 9.51452 10.3911L9.51232 10.3577ZM8.07551 8.19538L7.16662 9.13227C7.40228 9.45211 7.56275 9.82392 7.63398 10.2211L7.65441 10.3544L8.93917 10.3545C8.87641 9.60357 8.60568 8.8981 8.16574 8.31116L8.07551 8.19538ZM2.22027 8.24926L2.12907 8.37083C1.74434 8.90491 1.49728 9.53211 1.41542 10.1997L1.39948 10.3545L2.68421 10.3546C2.73211 9.97803 2.85948 9.62095 3.05512 9.30509L3.13166 9.18862L2.22027 8.24926ZM9.2689 9.17689L9.28559 9.22668H9.28602L9.28341 9.21813L9.2689 9.17689ZM9.25863 9.14735L9.26847 9.176L9.26407 9.16158L9.25863 9.14735ZM9.00394 7.24503C8.84012 7.39395 8.65816 7.52035 8.46266 7.62071C8.75147 7.94944 8.99293 8.31969 9.17877 8.72014C9.38923 8.60001 9.58811 8.45928 9.77271 8.30016L9.90842 8.1774L9.00394 7.24503ZM4.84035 6.80742L4.68941 6.82398C3.98829 6.91551 3.33364 7.20659 2.79054 7.65985L2.6759 7.75945L3.58245 8.69393C3.90831 8.41822 4.29668 8.23126 4.71428 8.15226L4.84041 8.13182L4.84035 6.80742ZM5.4983 6.80742L5.49819 8.13182C5.89635 8.18564 6.27181 8.33679 6.59723 8.56975L6.70381 8.6504L7.6118 7.71424C7.05506 7.22864 6.37501 6.91784 5.64495 6.82341L5.4983 6.80742ZM13.7369 6.39964L12.828 7.33654C13.0637 7.65638 13.2242 8.02819 13.2954 8.42539L13.3158 8.55869L14.6006 8.55875C14.5378 7.80784 14.2671 7.10237 13.8272 6.51543L13.7369 6.39964ZM11.1166 5.64555L9.83189 5.64544L9.81213 5.77507C9.7587 6.0756 9.65416 6.36189 9.50422 6.62252L9.43719 6.73262L10.3526 7.67629C10.7586 7.13001 11.0181 6.48328 11.1015 5.79391L11.1166 5.64555ZM7.97407 7.14257L7.919 7.21213L7.91963 7.21265L7.92687 7.20972L7.97798 7.14587L7.97407 7.14257ZM7.34678 3.40095C6.32593 3.40095 5.49836 4.25405 5.49836 5.30642C5.49836 5.56482 5.54826 5.8157 5.64344 6.04776L5.68699 6.14603L5.78022 6.15747C6.57457 6.27012 7.31669 6.6017 7.93708 7.11182C8.68138 6.85447 9.1952 6.13196 9.1952 5.30642C9.1952 4.25405 8.36764 3.40095 7.34678 3.40095ZM11.4255 6.88135L11.4178 6.90206L11.4192 6.89988L11.4255 6.88135ZM11.7853 5.12231C11.7876 5.18352 11.7888 5.2449 11.7888 5.30642C11.7888 5.60972 11.7602 5.9092 11.7036 6.20291L11.6664 6.37842L11.6472 6.45413L11.7754 6.5038C11.9444 6.57477 12.1051 6.66457 12.2549 6.7714L12.3652 6.85467L13.2732 5.91849C12.8418 5.54226 12.3342 5.26937 11.7853 5.12231ZM3.2119 6.68224L3.20227 6.68726C3.20643 6.68509 3.20917 6.68366 3.2119 6.68224ZM3.1765 6.59969L3.16307 6.60708L3.2013 6.68476L3.1765 6.59969ZM3.35241 6.61247C3.35086 6.6132 3.3493 6.61394 3.34775 6.61468L3.35241 6.61247ZM3.5194 6.53768L3.48557 6.55215L3.53072 6.53313L3.5194 6.53768ZM3.5658 6.51815L3.53927 6.52961L3.56622 6.51859L3.5658 6.51815ZM4.86169 5.64561L3.57694 5.64557C3.59751 5.89186 3.64046 6.13382 3.70494 6.36911C4.10887 6.22385 4.53274 6.13927 4.96676 6.11918C4.92984 6.0042 4.90079 5.8863 4.87988 5.76629L4.86169 5.64561ZM5.52301 6.21887L5.5226 6.2193L5.52814 6.21975L5.52773 6.2193L5.52301 6.21887ZM5.45648 6.21398L5.48932 6.21622H5.4905L5.45648 6.21398ZM5.30064 6.2063L5.36483 6.20873C5.34351 6.20778 5.32209 6.20695 5.30064 6.2063ZM10.253 2.80818L9.34408 3.74506C9.57974 4.0649 9.74022 4.43671 9.81145 4.83392L9.83187 4.96723L11.1166 4.96727C11.0539 4.21637 10.7831 3.51089 10.3432 2.92396L10.253 2.80818ZM4.39775 2.86207C3.9608 3.42146 3.68104 4.09355 3.59288 4.81253L3.57694 4.96728L4.86168 4.96739C4.90958 4.59082 5.03696 4.23374 5.23259 3.91788L5.30912 3.80141L4.39775 2.86207ZM11.6288 4.48405L11.6287 4.48487L11.6325 4.50691L11.6288 4.48405ZM11.7145 4.46795L11.63 4.48399L11.6916 4.49633L11.7187 4.49158L11.7145 4.46795ZM7.01781 1.42022L6.86687 1.43677C6.16575 1.5283 5.51112 1.8194 4.96802 2.27266L4.85336 2.37225L5.75992 3.30672C6.08578 3.03101 6.47414 2.84405 6.89174 2.76506L7.01787 2.74461L7.01781 1.42022ZM7.67576 1.42022L7.67565 2.74461C8.07381 2.79844 8.44927 2.94958 8.77469 3.18254L8.88127 3.26321L9.78926 2.32703C9.23252 1.84143 8.55247 1.53064 7.82241 1.4362L7.67576 1.42022Z" fill="#C1C9E5"/>
</g>
<defs>
<clipPath id="clip0_0_1393">
<rect width="16" height="16" fill="white"/>
</clipPath>
</defs>
</svg>
