<svg width="14" height="18" viewBox="0 0 14 18" fill="none" xmlns="http://www.w3.org/2000/svg">
<path d="M13 6.99996C13 3.69153 10.3084 1 6.99998 1C3.6916 1 1 3.69153 1 6.99996C1 9.08939 2.07382 10.9324 3.69832 12.0072V16.6666C3.69832 16.7953 3.77238 16.9125 3.8886 16.9677C3.93416 16.9893 3.98304 17 4.03166 17C4.10695 17 4.18157 16.9745 4.24223 16.9252L6.99995 14.6797L9.75771 16.925C9.85755 17.0063 9.99527 17.0228 10.1115 16.9675C10.2277 16.9122 10.3017 16.7948 10.3016 16.6661L10.2967 12.0104C11.924 10.9362 13 9.09148 13 6.99996ZM7.21045 13.9912C7.08783 13.8914 6.91202 13.8914 6.78945 13.9912L4.36513 15.9652V12.3894C5.16098 12.7801 6.05523 12.9999 7.00002 12.9999C7.94296 12.9999 8.83568 12.781 9.6304 12.3917L9.63408 15.9645L7.21045 13.9912ZM6.99998 12.3331C4.05926 12.3331 1.66678 9.94067 1.66678 6.99996C1.66678 4.05924 4.05926 1.66678 6.99998 1.66678C9.94071 1.66678 12.3332 4.05924 12.3332 6.99996C12.3332 9.94067 9.94071 12.3331 6.99998 12.3331Z" fill="#B6BFD8" stroke="#B6BFD8" stroke-width="0.3"/>
<path d="M7.33461 2.66758C7.33461 2.48346 7.18536 2.33418 7.0012 2.33418C4.42798 2.33418 2.33447 4.42764 2.33447 7.00089C2.33447 7.07126 2.33616 7.14326 2.33944 7.21476C2.34766 7.39348 2.4951 7.53286 2.67219 7.53286C2.67732 7.53286 2.68257 7.53276 2.68775 7.53248C2.87172 7.52401 3.01394 7.36804 3.00547 7.18414C3.00263 7.12273 3.00119 7.06108 3.00119 7.00086C3.00119 4.7953 4.79554 3.00093 7.00114 3.00093C7.18536 3.00096 7.33461 2.85171 7.33461 2.66758Z" fill="#B6BFD8" stroke="#B6BFD8" stroke-width="0.3"/>
<path d="M11.6608 6.78672C11.6523 6.60278 11.4958 6.45944 11.3124 6.46909C11.1284 6.47759 10.9862 6.63362 10.9947 6.81753C10.9975 6.87759 10.9989 6.93922 10.9989 7.00068C10.9989 9.20624 9.20453 11.0006 6.99893 11.0006C6.81484 11.0006 6.66553 11.1499 6.66553 11.334C6.66553 11.5181 6.81481 11.6674 6.99893 11.6674C9.57219 11.6674 11.6657 9.57396 11.6657 7.00072C11.6657 6.92897 11.6641 6.857 11.6608 6.78672Z" fill="#B6BFD8" stroke="#B6BFD8" stroke-width="0.3"/>
<path d="M6.999 9.76852C6.99906 9.76852 6.99909 9.76852 6.99916 9.76852C7.1045 9.76852 7.20372 9.71871 7.26663 9.63421L7.97391 8.68387L9.14722 8.5483C9.25194 8.53624 9.34479 8.4753 9.39757 8.38396C9.45035 8.29268 9.45682 8.1818 9.41504 8.08499L8.94569 6.99734L9.41491 5.91343C9.45679 5.81668 9.45038 5.70581 9.39776 5.61443C9.3451 5.52312 9.25232 5.46206 9.1476 5.44981L7.97094 5.3124L7.26684 4.36416C7.204 4.2795 7.10478 4.22959 6.99934 4.22953C6.99928 4.22953 6.99922 4.22953 6.99916 4.22953C6.89381 4.22953 6.79462 4.27934 6.73175 4.36387L6.02453 5.31418L4.85128 5.44975C4.74653 5.46181 4.65371 5.52275 4.6009 5.61409C4.54815 5.70537 4.54165 5.81625 4.58346 5.91306L5.05281 7.00071L4.58359 8.08462C4.54171 8.18137 4.54809 8.29224 4.60071 8.38362C4.6534 8.47493 4.74618 8.53599 4.8509 8.54824L6.0275 8.68565L6.73156 9.63389C6.79437 9.71855 6.89353 9.76846 6.999 9.76852ZM6.24784 8.04005L5.37362 7.93796L5.72187 7.13337C5.7584 7.04899 5.75847 6.95327 5.72203 6.86884L5.37331 6.06071L6.24419 5.96009C6.33553 5.94956 6.4185 5.90171 6.4734 5.82793L6.99891 5.12184L7.5215 5.82568C7.57628 5.8995 7.65919 5.94737 7.7505 5.95809L8.62482 6.06018L8.27653 6.86477C8.24 6.94915 8.23997 7.04487 8.27638 7.12934L8.62516 7.93746L7.75425 8.03809C7.66294 8.04862 7.57994 8.09646 7.52506 8.17021L6.9995 8.87637L6.47687 8.17249C6.42203 8.09859 6.33915 8.05071 6.24784 8.04005Z" fill="#B6BFD8" stroke="#B6BFD8" stroke-width="0.3"/>
<path d="M3.13118 8.02277C3.08087 7.84561 2.89627 7.74199 2.71918 7.79233C2.54205 7.84264 2.43902 8.02617 2.4893 8.2033L2.4919 8.21286C2.53362 8.35967 2.66759 8.45602 2.81312 8.45602C2.84312 8.45602 2.87359 8.45192 2.90393 8.44333C3.08106 8.39302 3.18409 8.20949 3.13384 8.03236L3.13118 8.02277Z" fill="#B6BFD8" stroke="#B6BFD8" stroke-width="0.3"/>
<path d="M11.1882 6.21991C11.2153 6.21991 11.2428 6.21656 11.2703 6.2096C11.4488 6.16444 11.5569 5.9831 11.5117 5.80463C11.5104 5.79957 11.509 5.79432 11.5076 5.78922C11.4583 5.61182 11.2746 5.50822 11.0972 5.5575C10.9198 5.60678 10.816 5.79082 10.8653 5.96822C10.9035 6.11931 11.0392 6.21991 11.1882 6.21991Z" fill="#B6BFD8" stroke="#B6BFD8" stroke-width="0.3"/>
</svg>
