<svg width="18" height="18" viewBox="0 0 18 18" fill="none" xmlns="http://www.w3.org/2000/svg">
<path d="M8.27323 5.22913C8.59623 4.65507 8.75773 4.36804 8.99922 4.36804C9.2407 4.36804 9.4022 4.65507 9.7252 5.22913L9.80876 5.37764C9.90047 5.54077 9.94637 5.62234 10.0179 5.67615C10.0895 5.72997 10.1786 5.74995 10.3568 5.7899L10.5191 5.82628C11.1463 5.96688 11.46 6.03718 11.5346 6.27489C11.6092 6.5126 11.3954 6.76029 10.9678 7.25568L10.8571 7.38385C10.7357 7.52462 10.6749 7.595 10.6475 7.68208C10.6203 7.76914 10.6294 7.86304 10.6478 8.05092L10.6645 8.22187C10.7291 8.88286 10.7615 9.21331 10.5662 9.36026C10.3708 9.50713 10.0772 9.37323 9.48992 9.10535L9.33803 9.03604C9.17109 8.95991 9.0877 8.92185 8.99922 8.92185C8.91073 8.92185 8.82735 8.95991 8.66041 9.03604L8.50851 9.10535C7.92125 9.37323 7.62766 9.50713 7.43224 9.36026C7.23695 9.21331 7.26927 8.88286 7.3339 8.22187L7.35064 8.05092C7.369 7.86304 7.37818 7.76914 7.3509 7.68208C7.32353 7.595 7.26278 7.52462 7.14127 7.38385L7.03064 7.25568C6.60304 6.76029 6.38925 6.5126 6.46387 6.27489C6.53848 6.03718 6.85209 5.96688 7.47933 5.82628L7.6416 5.7899C7.81984 5.74995 7.90892 5.72997 7.98049 5.67615C8.05206 5.62234 8.09796 5.54077 8.18968 5.37764L8.27323 5.22913Z" stroke="#C1C9E5"/>
<path d="M14.9508 6.89477C14.9508 10.1504 12.2869 12.7897 9.00078 12.7897C5.71469 12.7897 3.05079 10.1504 3.05079 6.89477C3.05079 3.63912 5.71469 0.999878 9.00078 0.999878C12.2869 0.999878 14.9508 3.63912 14.9508 6.89477Z" stroke="#C1C9E5"/>
<path d="M8.99999 12.8466L5.79427 16.1351C5.33516 16.6061 5.10561 16.8416 4.91122 16.923C4.46824 17.1087 3.97686 16.9498 3.74384 16.5456C3.64157 16.3682 3.60971 16.0481 3.54597 15.4081C3.50999 15.0468 3.492 14.8661 3.43739 14.7147C3.31512 14.3759 3.05821 14.1123 2.72794 13.987C2.58041 13.931 2.40428 13.9125 2.05201 13.8755C1.42809 13.8102 1.11613 13.7775 0.943175 13.6726C0.549065 13.4336 0.394161 12.9295 0.575168 12.4751C0.6546 12.2757 0.884151 12.0402 1.34325 11.5692L3.43739 9.42102" stroke="#C1C9E5"/>
<path d="M9 12.8466L12.2058 16.1351C12.6649 16.6061 12.8944 16.8416 13.0888 16.923C13.5318 17.1087 14.0232 16.9498 14.2561 16.5456C14.3584 16.3682 14.3903 16.0481 14.454 15.4081C14.49 15.0468 14.508 14.8661 14.5626 14.7147C14.6849 14.3759 14.9417 14.1123 15.2721 13.987C15.4196 13.931 15.5957 13.9125 15.948 13.8755C16.5719 13.8102 16.8838 13.7775 17.0568 13.6726C17.4509 13.4336 17.6058 12.9295 17.4249 12.4751C17.3454 12.2757 17.1159 12.0402 16.6567 11.5692L14.5626 9.42102" stroke="#C1C9E5"/>
</svg>
