<svg width="20" height="20" viewBox="0 0 20 20" fill="none" xmlns="http://www.w3.org/2000/svg">
<path fill-rule="evenodd" clip-rule="evenodd" d="M18 4.39997C18 3.78115 17.1673 3.56104 16.6164 3.41543C16.5657 3.40205 16.5175 3.3893 16.4725 3.37693C15.7845 3.18772 14.8074 3 13.6364 3C12.3827 3 11.349 3.40179 10.6392 3.79221C10.5306 3.85193 10.4164 3.93442 10.3132 4.00898C10.1769 4.10748 10.0599 4.19213 10 4.19213C9.94015 4.19213 9.82305 4.10748 9.68676 4.00898C9.58356 3.93442 9.46938 3.85193 9.3608 3.79221C8.65098 3.40179 7.61729 3 6.36364 3C5.19257 3 4.21549 3.18772 3.52748 3.37693C3.48421 3.38882 3.43785 3.4011 3.38921 3.414C2.84073 3.55936 2 3.78217 2 4.39997V13.4997C2 13.7424 2.13051 13.9676 2.34492 14.0952C2.68603 14.2981 3.13617 14.1205 3.53508 13.9631C3.67425 13.9082 3.80718 13.8558 3.92707 13.8228C4.51178 13.662 5.35289 13.4997 6.36364 13.4997C7.28095 13.4997 7.96767 13.791 8.48247 14.0959C8.61469 14.1742 8.74836 14.2741 8.88553 14.3766C9.22458 14.6301 9.58531 14.8997 10 14.8997C10.4159 14.8997 10.7748 14.6311 11.1132 14.3777C11.2505 14.2749 11.3845 14.1747 11.5175 14.0959C12.0324 13.791 12.7191 13.4997 13.6364 13.4997C14.6471 13.4997 15.4882 13.662 16.0729 13.8228C16.1983 13.8573 16.3345 13.9126 16.4758 13.9701C16.8686 14.1297 17.3013 14.3056 17.6551 14.0952C17.8695 13.9676 18 13.7424 18 13.4997V4.39997ZM3.69638 4.7902C3.55028 4.83508 3.45455 4.9675 3.45455 5.11511V12.0292C3.45455 12.2629 3.68792 12.4311 3.92398 12.3763C4.57147 12.2263 5.40201 12.0998 6.36364 12.0998C7.64588 12.0998 8.6032 12.5193 9.27273 12.9202V5.41891C9.12647 5.30709 8.91178 5.15766 8.6392 5.00772C8.07631 4.69816 7.2918 4.39997 6.36364 4.39997C5.21097 4.39997 4.27628 4.61204 3.69638 4.7902ZM13.6364 12.0998C12.3541 12.0998 11.3968 12.5193 10.7273 12.9202V5.41891C10.8735 5.30709 11.0882 5.15766 11.3608 5.00772C11.9237 4.69816 12.7082 4.39997 13.6364 4.39997C14.789 4.39997 15.7237 4.61204 16.3036 4.7902C16.4497 4.83508 16.5455 4.9675 16.5455 5.11511V12.0292C16.5455 12.2629 16.3121 12.4311 16.076 12.3763C15.4285 12.2263 14.598 12.0998 13.6364 12.0998Z" fill="#C1C9E5"/>
<path d="M2.79076 15.8861C2.62658 15.5333 2.79067 15.1192 3.15724 14.9612C3.49778 14.8155 3.85033 14.6931 4.2049 14.5835C4.79318 14.4019 5.60658 14.2001 6.36359 14.2001C7.21224 14.2001 7.93657 14.6403 8.46155 14.9593C8.48849 14.9757 8.51492 14.9918 8.5408 15.0074C9.15246 15.3775 9.56388 15.6 9.99996 15.6C10.4355 15.6 10.8445 15.3781 11.4554 15.0077C11.4805 14.9925 11.506 14.977 11.532 14.9611C12.0575 14.6413 12.7823 14.2001 13.6363 14.2001C14.3974 14.2001 15.2106 14.4017 15.7986 14.5837C16.3266 14.747 16.7184 14.9086 16.819 14.9512C17.187 15.1078 17.3776 15.5261 17.2085 15.8874C17.0448 16.2374 16.6079 16.3928 16.2453 16.2377C15.9551 16.1145 15.6553 16.0099 15.3534 15.9164C14.8103 15.7484 14.169 15.6 13.6363 15.6C13.2297 15.6 12.839 15.8231 12.1868 16.2189C11.6461 16.547 10.8998 17 9.99996 17C9.09952 17 8.35076 16.5465 7.80857 16.2181C7.15504 15.8221 6.76523 15.6 6.36359 15.6C5.83543 15.6 5.1943 15.7482 4.64932 15.9166C4.34569 16.0103 4.0434 16.1146 3.75159 16.239C3.38505 16.3968 2.9549 16.2389 2.79076 15.8861Z" fill="#C1C9E5"/>
</svg>
