<svg width="16" height="18" viewBox="0 0 16 18" fill="none" xmlns="http://www.w3.org/2000/svg">
<path fill-rule="evenodd" clip-rule="evenodd" d="M10.0156 0.927993C10.107 1.00747 10.1763 1.10932 10.2166 1.22359C10.2569 1.33786 10.2669 1.46064 10.2456 1.57992V2.42396C10.1319 3.10826 10.0806 3.80147 10.0924 4.49504C10.0967 4.63878 10.1227 4.78105 10.1697 4.91699C10.2051 5.09303 10.0737 5.10246 10.0924 5.26227C10.3974 6.58407 10.9019 7.85174 11.5884 9.02175C11.8009 8.87615 12.0097 8.72685 12.2404 8.5998C12.5266 8.51071 12.8232 8.45907 13.1227 8.44617C13.4217 8.46314 13.7178 8.5147 14.005 8.5998C15.1625 9.21974 15.98 10.1795 15.9998 11.937C15.9869 12.3904 15.9226 12.8408 15.8081 13.2797C15.6535 13.5472 15.4835 13.7985 15.3478 14.0852C15.2301 14.1722 15.1806 14.3274 15.079 14.4305C14.9701 14.529 14.8793 14.6459 14.8107 14.7758C14.6375 14.858 14.5399 15.0164 14.3888 15.1209C14.2409 15.2116 14.1108 15.3287 14.005 15.4662C13.6375 15.5844 13.3907 15.8237 13.0468 15.9648C12.7599 16.0872 12.297 16.0336 12.0494 16.1951C11.5548 16.1262 10.9477 16.1713 10.5533 16.0031C10.3734 16.0198 10.1919 16.0068 10.0162 15.9648C9.63875 15.8693 9.38899 15.6458 9.13397 15.4279C8.96921 15.2089 8.84911 14.9454 8.67354 14.7375C8.48528 14.9075 8.4366 15.2166 8.25159 15.3896C8.13712 15.6206 7.98109 15.8286 7.79132 16.0031C7.48575 16.401 7.04944 16.6677 6.60215 16.924C6.25152 17.0242 5.8916 17.0884 5.52797 17.1157C4.75007 17.0497 3.97388 16.9818 3.3796 16.732C3.25796 16.6362 3.02937 16.6477 2.88084 16.5787C2.74639 16.5019 2.60514 16.4377 2.4589 16.3868C2.24994 16.1868 2.01269 16.0147 1.80682 15.8113C1.53959 15.401 1.23743 15.0253 1.11625 14.4688C1.0365 14.459 1.10574 14.3002 1.03897 14.277C1.03975 14.1868 0.972819 14.1641 1.00048 14.0467C0.957265 13.9099 0.931304 13.7682 0.923205 13.625C0.887615 13.3069 0.874759 12.9866 0.884726 12.6667C0.918384 12.3417 0.982657 12.0206 1.07669 11.7077C1.15149 11.5908 1.19677 11.4449 1.26849 11.324C1.34681 11.2176 1.41126 11.1015 1.4603 10.9788C1.57437 10.9267 1.61949 10.8057 1.69043 10.7103C1.93772 10.5234 2.15303 10.3033 2.45767 10.1732C2.55457 10.0527 2.77173 10.0528 2.87961 9.94307C2.97375 9.9377 3.06549 9.91129 3.14808 9.86579C3.21531 9.8307 3.33942 9.8525 3.37837 9.78851C3.97929 9.74647 4.68037 9.70752 5.18113 9.86579C5.31143 9.68897 5.34156 9.41232 5.44975 9.21356C5.53065 8.99899 5.63352 8.79337 5.75671 8.59996C5.94218 8.18404 6.19566 7.83675 6.40864 7.44896C6.39519 7.39517 6.34125 7.44572 6.33213 7.48745C6.28159 7.5009 6.27155 7.55484 6.21699 7.56473C6.19102 7.65391 6.08947 7.66751 6.06351 7.75654C5.87572 7.79904 5.83615 7.98945 5.67989 8.06349C5.44017 8.28404 5.17572 8.47987 4.91267 8.67724C4.28762 9.07639 3.57885 9.32583 2.84158 9.40613C1.8099 9.46579 1.07174 9.23226 0.156442 9.17584C-0.0478845 8.9964 0.00837771 8.55668 0.00296817 8.17848C0.139929 7.53917 0.359061 6.92028 0.654898 6.33722C0.771475 6.0445 0.912675 5.76219 1.07699 5.49334C1.21385 5.23151 1.38127 4.98684 1.57575 4.76444C2.29352 3.81993 3.34777 3.2119 4.87465 3.07651H5.48839C5.78585 3.10621 6.08076 3.15751 6.37077 3.22998C6.4583 3.30644 6.5639 3.35927 6.67757 3.38346C6.74295 3.45873 6.76721 3.57511 6.86953 3.6136C7.51265 3.33539 7.93181 2.83462 8.28884 2.27095C8.33211 2.07002 8.18497 1.91361 8.28884 1.77219C8.35793 1.47064 8.61233 1.35488 8.82593 1.19677C9.06624 1.05959 9.32437 0.956341 9.593 0.889972C9.73499 0.875281 9.87848 0.888193 10.0156 0.927993ZM9.28666 1.7334C9.20583 1.76755 9.17322 1.85024 9.05653 1.84854C9.04632 1.98672 9.12747 2.03401 9.13381 2.15534C9.05653 2.27002 9.11201 2.51731 9.09548 2.69243C9.21835 2.76631 9.28899 2.66971 9.44076 2.73076C9.52524 2.37921 9.5639 2.0182 9.55576 1.65674C9.55359 1.63324 9.55004 1.61129 9.51743 1.6184C9.46565 1.68239 9.34632 1.67791 9.28666 1.7334ZM8.55793 3.34451C8.29688 3.67606 7.97037 3.95032 7.59874 4.15022C7.63765 4.28814 7.66353 4.42941 7.67602 4.57217C7.6427 4.71019 7.62973 4.85234 7.63753 4.99411C7.5737 5.04542 7.6247 5.21142 7.56025 5.26258C7.59194 5.36273 7.44418 5.47309 7.56025 5.5312C7.75824 5.19117 7.99703 4.8938 8.174 4.53384C8.3638 4.18639 8.57987 3.86568 8.63443 3.383C8.62593 3.35301 8.60244 3.33833 8.55777 3.34451H8.55793ZM5.4513 3.91993C5.05687 3.89644 4.74033 3.95007 4.37712 3.95842C3.21159 4.17387 2.464 4.8071 1.92227 5.64619C1.64459 6.0812 1.41315 6.54404 1.23171 7.02717C1.08874 7.22964 1.03882 7.525 0.924752 7.75607C0.866793 8.01063 0.707137 8.34911 0.771279 8.60011C1.41007 8.51727 2.0266 8.63473 2.72767 8.60011C2.89444 8.56379 3.11732 8.54462 3.18795 8.52283C3.22319 8.51217 3.26786 8.53303 3.3031 8.52283C3.32087 8.51742 3.39583 8.45328 3.41809 8.44555C3.52968 8.41 3.63447 8.40537 3.7252 8.36827C3.75255 8.35715 3.8017 8.30645 3.84018 8.29099C3.9734 8.23842 4.10177 8.1743 4.2238 8.09934C5.202 7.53304 5.94033 6.64943 6.6788 5.91265C6.72425 5.62579 6.84743 5.41637 6.9091 5.14558C6.91991 4.99025 6.97478 4.87896 6.98637 4.72348C6.9363 4.55346 7.12393 4.38345 6.9091 4.37835C6.67556 4.36289 6.81729 4.72132 6.71729 4.83863C6.69442 5.04605 6.62379 5.20539 6.41019 5.22224C6.33885 5.17758 6.28021 5.11529 6.23993 5.04139C6.19965 4.96748 6.17907 4.88446 6.1802 4.8003C6.01544 4.85199 5.86 4.92968 5.71977 5.03044C5.54079 5.3885 5.36176 5.7465 5.18268 6.10446C5.10776 6.28606 5.00418 6.45445 4.87589 6.60322C4.80216 6.79812 4.75857 7.02284 4.49211 7.02516C4.31993 7.00584 4.27342 6.86025 4.2238 6.71837C4.24191 6.54807 4.28057 6.3806 4.33895 6.21961C4.37481 6.1006 4.54852 5.91992 4.45394 5.79766C4.25703 5.98437 4.04018 6.15114 3.84018 6.33475C3.82875 6.4128 3.73633 6.40987 3.7252 6.48807C3.68007 6.54542 3.56569 6.53336 3.57156 6.64155C3.44591 6.7077 3.39058 6.84387 3.26477 6.91017C3.08811 7.11713 2.89181 7.3043 2.72767 7.52377C2.44947 7.6298 2.39182 7.9553 2.03726 7.9842C2.00264 7.9165 1.896 7.92083 1.88379 7.83072C1.87993 7.55839 2.06045 7.47044 2.15226 7.29378C2.22954 7.10275 2.38486 6.98915 2.4592 6.79503C2.59778 6.6645 2.72605 6.52343 2.84283 6.37308C2.92938 6.33181 2.95457 6.22903 3.03463 6.18127C3.04359 6.12656 3.09769 6.11651 3.11191 6.06613C3.17079 6.06613 3.23803 5.96149 3.11191 5.98885C2.97451 6.05593 2.74452 6.03073 2.61315 6.10384C2.46539 6.13212 2.19043 6.20585 2.15287 6.02656C2.13077 5.78684 2.26879 5.70771 2.4215 5.64295C2.54533 5.51755 2.70715 5.43664 2.88177 5.41281C3.17296 5.2428 3.57914 5.18963 4.03262 5.18267C4.04807 5.09643 4.23616 5.18159 4.26275 5.10539C4.30123 5.02904 4.43277 5.04496 4.41623 4.91359C4.14065 4.85671 3.82071 4.84435 3.80248 4.53013C3.9051 4.37696 4.18315 4.39922 4.33956 4.29983C4.49412 4.32626 4.55842 4.26305 4.68485 4.26151C4.95391 4.24534 5.22394 4.25819 5.49025 4.29983C5.72425 4.13569 6.02888 4.27758 6.25748 4.10818C6.06598 3.96939 5.72425 3.97898 5.45053 3.91993H5.4513ZM9.09564 4.15022C8.71743 5.31915 7.9791 6.12857 7.44603 7.14232C7.32252 7.39481 7.18154 7.63837 7.02409 7.87121C6.90647 8.14942 6.71838 8.35807 6.60215 8.63829C6.43619 8.8732 6.30684 9.13194 6.21853 9.40567C6.12239 9.50119 6.11034 9.68032 6.02672 9.78913C6.03074 9.9848 5.87526 10.0945 5.94945 10.2494C6.13491 10.3203 6.43491 10.2755 6.67818 10.2879C6.85438 10.3292 6.98962 10.4115 7.17695 10.4414C7.30229 10.5528 7.4447 10.6435 7.59874 10.7098C7.98655 11.0756 8.31072 11.5034 8.55793 11.9757C8.6128 12.2916 8.76379 12.5115 8.78806 12.858C8.82441 13.0216 8.83737 13.1895 8.82655 13.3566C8.83536 13.5396 8.99826 13.5685 9.09501 13.6636C9.15483 13.5701 9.1743 13.4359 9.24834 13.3566C9.3335 13.2757 9.32932 13.105 9.51696 13.1265C9.79516 13.1551 9.68697 13.5698 9.70877 13.8554C9.64694 13.9978 9.67692 14.2327 9.67028 14.4308C9.80073 14.4795 9.81557 14.6435 9.97723 14.661C9.99292 14.4491 10.0448 14.2414 10.1307 14.0471C10.2072 13.8554 10.2544 13.6336 10.5143 13.6253C10.9615 13.8316 10.6009 14.5692 10.6293 15.0446C10.7408 15.0929 10.8564 15.1315 10.9746 15.1597C11.1338 15.012 10.9958 14.5671 11.3199 14.5841C11.5955 14.641 11.6445 14.9253 11.6268 15.2747C12.0208 15.3588 12.4321 15.2903 12.7775 15.0829H13.0845C13.1908 14.9718 13.3516 14.9152 13.4679 14.8144C13.6387 14.7548 13.71 14.5959 13.89 14.5458C14.1092 14.3146 14.3537 14.1087 14.6188 13.9321C14.652 13.7735 14.7774 13.707 14.8107 13.5485C14.9189 13.4525 14.9324 13.2611 15.0407 13.1648C15.0369 12.6239 15.1996 12.2495 15.1559 11.6689C15.0526 10.4806 14.4777 9.76424 13.6216 9.32885C13.4924 9.31007 13.3643 9.28427 13.2379 9.25157C13.0589 9.25157 12.8798 9.25157 12.7009 9.25157C12.4905 9.31181 12.2852 9.38883 12.0871 9.48187C11.9936 9.5865 12.1893 9.63472 12.2404 9.712C12.3519 9.76672 12.3271 9.95791 12.4707 9.98047C12.6942 9.88449 12.8128 9.68326 13.1227 9.67352C13.2011 9.71822 13.2624 9.78767 13.2972 9.87098C13.3319 9.9543 13.3381 10.0468 13.3146 10.1339C13.1647 10.5339 12.7678 10.6866 12.3173 10.786H11.6268C11.4276 10.7469 11.2341 10.6826 11.0511 10.5947C10.8715 10.5091 10.64 10.4646 10.6673 10.1727C10.6955 10.0602 10.7839 10.0078 10.8593 9.94261H11.0894C11.173 9.91819 11.2114 10.0508 11.2044 9.90428C11.1426 9.72375 10.8871 9.7355 10.7058 9.67398H10.1304C10.1233 9.73086 10.0377 9.70922 9.97692 9.71247C9.91581 9.77625 9.83448 9.81689 9.74678 9.82746C9.66564 9.87383 9.63535 9.97182 9.51665 9.98094C9.34664 10.1693 9.19455 10.3751 9.01789 10.5564C8.8692 10.7785 8.74679 11.0268 8.48095 11.1318C8.31866 11.0768 8.05515 11.1228 8.02037 10.94C8.02964 10.2585 8.44911 9.98758 8.74942 9.59732C8.90011 9.58187 8.91326 9.4287 9.05622 9.40567C9.15651 9.31789 9.27423 9.25231 9.40166 9.21325C9.60259 9.06873 9.91618 9.03736 10.2072 8.98311H10.6675C10.5221 8.60413 10.2879 8.31403 10.1689 7.90893C9.9743 7.56674 9.86364 7.14015 9.70862 6.75824C9.49332 5.89936 9.25854 5.05995 9.17168 4.07295C9.16302 4.04312 9.13953 4.02828 9.0944 4.03461L9.09564 4.15022ZM3.37991 10.633C3.01376 10.8168 2.76802 11.121 2.49754 11.4002C2.29437 11.8204 2.17698 12.2768 2.15226 12.7429C2.14401 13.039 2.16994 13.3351 2.22954 13.6253C2.27436 13.7279 2.32969 13.5253 2.38301 13.5101C2.42954 13.4309 2.4955 13.3649 2.57466 13.3183C2.63372 13.2433 2.70971 13.1833 2.7964 13.1433C2.8831 13.1033 2.97802 13.0844 3.07342 13.0882C3.0847 13.1664 3.17713 13.1634 3.18841 13.2417C3.05688 13.7624 2.71361 14.071 2.57466 14.5841C2.59398 14.744 2.70882 14.8081 2.72814 14.9678C2.92134 14.9308 2.88872 14.6679 3.03509 14.5841C3.12118 14.4274 3.20511 14.2678 3.45704 14.2774C3.65982 14.3826 3.5507 14.7509 3.49537 14.9294C3.37516 15.1192 3.28457 15.3261 3.22674 15.5432C3.34668 15.5895 3.39367 15.7089 3.53355 15.7351C3.71469 15.6219 3.69598 15.309 4.03246 15.3514C4.3612 15.4171 4.18346 15.912 4.10974 16.1188C4.6591 16.2702 5.22626 16.3476 5.79612 16.3487C6.04434 16.2645 6.32023 16.2078 6.56351 16.1188C6.73023 15.9792 6.88426 15.8251 7.02378 15.6583C7.19379 15.5211 7.26674 15.2874 7.44572 15.1597C7.45345 15.0138 7.60708 15.014 7.59904 14.8528C7.71666 14.8168 7.69348 14.6401 7.791 14.5841C7.89053 14.3623 7.96758 14.131 8.02099 13.8937V13.1648C7.98137 12.8335 7.89086 12.5103 7.75268 12.2066C7.61382 11.946 7.4466 11.7015 7.25407 11.4777C6.85886 11.195 6.5074 10.8687 5.79612 10.9023C5.736 11.2062 5.736 11.5189 5.79612 11.8228C5.95977 11.8592 6.12775 11.8721 6.29504 11.8613C6.37325 11.786 6.53492 11.7944 6.56351 11.6695C6.70416 11.6567 6.71806 11.5174 6.90878 11.5543C7.03583 11.5678 7.07509 11.6693 7.13877 11.7461C7.16288 12.384 6.70972 12.5446 6.14141 12.5902C5.70045 12.5452 5.28206 12.4778 4.99072 12.2832C4.80278 12.2281 4.7051 12.0823 4.53029 12.0146C4.4238 11.8655 4.24605 11.7876 4.30015 11.4777C4.47341 11.2613 4.75224 11.439 4.99072 11.4777C4.97481 11.2213 4.98767 10.964 5.02905 10.7105C4.60185 10.4947 3.90804 10.5598 3.37914 10.633H3.37991Z" fill="#C1C9E5"/>
</svg>
