<svg width="16" height="16" viewBox="0 0 16 16" fill="none" xmlns="http://www.w3.org/2000/svg">
<g clip-path="url(#clip0_78_490)">
<path d="M12.9557 6.19296C12.5973 6.38306 12.3069 6.81962 12.3069 7.16828C12.3069 7.51675 12.5973 7.64534 12.9557 7.4555C13.3138 7.26543 13.6045 6.82862 13.6045 6.48015C13.6045 6.1315 13.3138 6.00287 12.9557 6.19296Z" fill="#C1C9E5"/>
<path d="M12.9557 8.2483C12.5973 8.4384 12.3069 8.87496 12.3069 9.22362C12.3069 9.5723 12.5973 9.7009 12.9557 9.51083C13.3138 9.32077 13.6045 8.88399 13.6045 8.53552C13.6045 8.18705 13.3138 8.05824 12.9557 8.2483Z" fill="#C1C9E5"/>
<path d="M9.80213 9.25807C10.1603 9.06798 10.4509 8.63141 10.4509 8.28273C10.4509 7.93404 10.1603 7.80544 9.80213 7.99551C9.44357 8.1856 9.15332 8.62216 9.15332 8.97085C9.15332 9.31954 9.44357 9.44813 9.80213 9.25807Z" fill="#C1C9E5"/>
<path d="M12.9557 10.3038C12.5973 10.4936 12.3069 10.9304 12.3069 11.2789C12.3069 11.6276 12.5973 11.7562 12.9557 11.5661C13.3138 11.376 13.6045 10.9394 13.6045 10.5908C13.6045 10.2423 13.3138 10.1137 12.9557 10.3038Z" fill="#C1C9E5"/>
<path d="M9.80213 12.1062C9.44357 12.2965 9.15332 12.7331 9.15332 13.0815C9.15332 13.4302 9.44354 13.5588 9.80213 13.3687C10.1603 13.1788 10.4509 12.7421 10.4509 12.3934C10.4509 12.0449 10.1603 11.9163 9.80213 12.1062Z" fill="#C1C9E5"/>
<path d="M9.8417 10.0509C9.48336 10.241 9.19312 10.6776 9.19312 11.0263C9.19312 11.3749 9.48333 11.5035 9.8417 11.3135C10.2001 11.1234 10.4907 10.6868 10.4907 10.3381C10.4907 9.98945 10.2001 9.86082 9.8417 10.0509Z" fill="#C1C9E5"/>
<path d="M14.143 3.30006L8.97003 0.280906C8.64917 0.0935625 8.28804 0 7.9273 0C7.56677 0 7.20542 0.0935625 6.88475 0.280906L1.71161 3.30006C1.10099 3.6565 0.727295 4.29847 0.727295 4.99122V11.0088C0.727295 11.7015 1.10095 12.3435 1.71161 12.6999L6.88478 15.7191C7.20542 15.9062 7.56677 16 7.9273 16C8.28804 16 8.64917 15.9062 8.97003 15.7191L14.143 12.6999C14.7534 12.3435 15.1273 11.7015 15.1273 11.0088V4.99122C15.1273 4.29847 14.7534 3.6565 14.143 3.30006ZM7.75351 15.3979C7.56029 15.3746 7.37057 15.3129 7.19742 15.212L2.02424 12.1928C1.59666 11.9432 1.33512 11.4938 1.33512 11.0088V4.99122C1.33512 4.80303 1.37501 4.62053 1.44792 4.45266L7.75354 8.13266L7.75351 15.3979ZM1.62123 4.15981C1.7295 4.02031 1.86532 3.89988 2.02424 3.80713L7.19742 0.787969C7.42211 0.656844 7.67459 0.591406 7.9273 0.591406C8.18 0.591406 8.43228 0.656875 8.65717 0.787969L13.8303 3.80713C13.9892 3.89988 14.1251 4.02028 14.2333 4.15981L7.9273 7.84003L1.62123 4.15981ZM14.5193 11.0088C14.5193 11.4938 14.2579 11.9432 13.8303 12.1928L8.6572 15.212C8.48406 15.3129 8.29453 15.3746 8.10112 15.3979V8.13269L14.4067 4.45269C14.4796 4.62053 14.5193 4.80306 14.5193 4.99125V11.0088H14.5193Z" fill="#C1C9E5"/>
<path d="M8.55367 1.39584C8.23801 1.16865 7.71771 1.16275 7.3919 1.38325C7.0661 1.60353 7.05791 1.9669 7.3736 2.19412C7.68948 2.42153 8.20937 2.4274 8.53517 2.20694C8.86075 1.9864 8.86935 1.62344 8.55367 1.39584Z" fill="#C1C9E5"/>
<path d="M11.9852 3.61774C11.6696 3.39011 11.1495 3.38442 10.8237 3.6047C10.4981 3.82499 10.4897 4.18836 10.8054 4.41558C11.1213 4.64299 11.6411 4.64867 11.9669 4.42858C12.2927 4.20786 12.3011 3.84514 11.9852 3.61774Z" fill="#C1C9E5"/>
<path d="M5.02532 3.54937C4.70964 3.32193 4.18958 3.31628 3.86378 3.53656C3.53775 3.75706 3.52956 4.12 3.84525 4.34743C4.1609 4.57506 4.68102 4.58053 5.00701 4.36025C5.33256 4.13975 5.34097 3.77681 5.02532 3.54937Z" fill="#C1C9E5"/>
<path d="M8.45417 5.77096C8.13826 5.54353 7.61821 5.53787 7.29263 5.75815C6.96683 5.97865 6.95842 6.34159 7.27426 6.569C7.59017 6.79662 8.10981 6.80231 8.43583 6.58181C8.76144 6.36153 8.76986 5.99859 8.45417 5.77096Z" fill="#C1C9E5"/>
<path d="M8.48865 3.59746C8.18353 3.3778 7.68137 3.37215 7.36633 3.58508C7.05151 3.79802 7.04377 4.1488 7.34863 4.36846C7.65375 4.58808 8.15613 4.59377 8.47115 4.38083C8.78577 4.1679 8.79377 3.81711 8.48865 3.59746Z" fill="#C1C9E5"/>
<path d="M2.57486 7.75946C2.93323 7.94955 3.22389 7.82074 3.22389 7.47227C3.22389 7.12358 2.93323 6.68699 2.57486 6.49693C2.21674 6.30687 1.92627 6.43546 1.92627 6.78415C1.92627 7.13258 2.21674 7.56937 2.57486 7.75946Z" fill="#C1C9E5"/>
<path d="M6.194 13.2054C6.55233 13.3954 6.84258 13.2669 6.84258 12.9182C6.84258 12.5697 6.55233 12.1329 6.194 11.9428C5.83563 11.7529 5.54541 11.8816 5.54541 12.23C5.54541 12.5787 5.83563 13.0153 6.194 13.2054Z" fill="#C1C9E5"/>
<path d="M4.38736 10.4837C4.74569 10.6738 5.03613 10.5452 5.03613 10.1965C5.03613 9.84802 4.74569 9.41124 4.38736 9.22136C4.02899 9.0313 3.73877 9.1599 3.73877 9.50837C3.73877 9.85702 4.02899 10.2936 4.38736 10.4837Z" fill="#C1C9E5"/>
</g>
<defs>
<clipPath id="clip0_78_490">
<rect width="16" height="16" fill="white"/>
</clipPath>
</defs>
</svg>
