<svg width="20" height="20" viewBox="0 0 20 20" fill="none" xmlns="http://www.w3.org/2000/svg">
<path d="M8.07393 2.96022C8.56343 2.54306 8.80815 2.33449 9.06407 2.21218C9.65596 1.92927 10.344 1.92927 10.9359 2.21218C11.1918 2.33449 11.4366 2.54306 11.9261 2.96022C12.1209 3.12624 12.2183 3.20926 12.3224 3.27899C12.5609 3.43884 12.8287 3.54977 13.1103 3.60538C13.2332 3.62964 13.3607 3.63982 13.616 3.66018C14.2571 3.71134 14.5776 3.73692 14.845 3.83138C15.4636 4.04987 15.9502 4.53641 16.1687 5.15497C16.2631 5.42241 16.2886 5.74296 16.3399 6.38406C16.3602 6.63923 16.3703 6.76681 16.3946 6.88968C16.4502 7.17134 16.5611 7.43917 16.721 7.67765C16.7908 7.78169 16.8737 7.8791 17.0398 8.07392C17.4569 8.56342 17.6656 8.80823 17.7879 9.06406C18.0707 9.65595 18.0707 10.344 17.7879 10.9359C17.6656 11.1918 17.4569 11.4365 17.0398 11.9261C16.8737 12.1209 16.7908 12.2183 16.721 12.3224C16.5611 12.5608 16.4502 12.8287 16.3946 13.1104C16.3703 13.2332 16.3602 13.3608 16.3399 13.616C16.2886 14.2571 16.2631 14.5776 16.1687 14.845C15.9502 15.4636 15.4636 15.9501 14.845 16.1687C14.5776 16.2631 14.2571 16.2886 13.616 16.3398C13.3607 16.3602 13.2332 16.3704 13.1103 16.3946C12.8287 16.4503 12.5609 16.5611 12.3224 16.721C12.2183 16.7907 12.1209 16.8737 11.9261 17.0398C11.4366 17.4569 11.1918 17.6655 10.9359 17.7879C10.344 18.0707 9.65596 18.0707 9.06407 17.7879C8.80815 17.6655 8.56343 17.4569 8.07393 17.0398C7.8791 16.8737 7.78168 16.7907 7.67765 16.721C7.43917 16.5611 7.17134 16.4503 6.88968 16.3946C6.76681 16.3704 6.63923 16.3602 6.38407 16.3398C5.74296 16.2886 5.4224 16.2631 5.15497 16.1687C4.53641 15.9501 4.04986 15.4636 3.83138 14.845C3.73692 14.5776 3.71134 14.2571 3.66018 13.616C3.63982 13.3608 3.62964 13.2332 3.60538 13.1104C3.54977 12.8287 3.43884 12.5608 3.27899 12.3224C3.20926 12.2183 3.12625 12.1209 2.96022 11.9261C2.54306 11.4365 2.33449 11.1918 2.21217 10.9359C1.92928 10.344 1.92928 9.65595 2.21217 9.06406C2.33449 8.80814 2.54306 8.56342 2.96022 8.07392C3.12625 7.8791 3.20926 7.78169 3.27899 7.67765C3.43884 7.43917 3.54977 7.17134 3.60538 6.88968C3.62964 6.76681 3.63982 6.63923 3.66018 6.38406C3.71134 5.74296 3.73692 5.42241 3.83138 5.15497C4.04986 4.53641 4.53641 4.04987 5.15497 3.83138C5.4224 3.73692 5.74296 3.71134 6.38407 3.66018C6.63923 3.63982 6.76681 3.62964 6.88968 3.60538C7.17134 3.54977 7.43917 3.43884 7.67765 3.27899C7.78169 3.20926 7.8791 3.12624 8.07393 2.96022Z" stroke="#C1C9E5"/>
<path d="M13.4756 9.64225L13.3861 10.429L14.1136 10.5031L14.2031 9.71628L13.4756 9.64225ZM10.5307 13.3077H9.46932V14H10.5307V13.3077ZM6.6139 10.429L6.52446 9.64225L5.79695 9.71628L5.88639 10.5031L6.6139 10.429ZM8.73906 9.1766L9.612 7.69572L8.97294 7.3585L8.10002 8.83935L8.73906 9.1766ZM10.388 7.69571L11.2609 9.1766L11.9 8.83935L11.0271 7.3585L10.388 7.69571ZM11.2609 9.1766C11.3399 9.31045 11.4125 9.43455 11.4829 9.52945C11.5554 9.62706 11.6542 9.73488 11.8056 9.79797L12.1005 9.16437C12.1278 9.17568 12.1231 9.18735 12.0817 9.1316C12.0382 9.07303 11.9867 8.98645 11.9 8.83935L11.2609 9.1766ZM12.4103 8.90637C12.2841 9.02531 12.2093 9.09528 12.1503 9.14037C12.0942 9.18334 12.093 9.17102 12.1222 9.16718L12.2224 9.85298C12.3862 9.83157 12.5125 9.75362 12.6106 9.67857C12.7059 9.60565 12.8118 9.50517 12.9267 9.39685L12.4103 8.90637ZM11.8056 9.79797C11.9365 9.85248 12.0808 9.87149 12.2224 9.85298L12.1222 9.16718C12.1148 9.16815 12.1073 9.16718 12.1005 9.16437L11.8056 9.79797ZM7.07327 9.39685C7.18819 9.50517 7.29415 9.60565 7.38943 9.67857C7.48748 9.75362 7.61378 9.83157 7.77755 9.85298L7.87777 9.16718C7.90704 9.17102 7.90581 9.18334 7.84966 9.14037C7.79075 9.09528 7.71587 9.02531 7.58965 8.90637L7.07327 9.39685ZM8.10002 8.83935C8.01333 8.98645 7.96175 9.07303 7.91829 9.1316C7.8769 9.18735 7.87226 9.17568 7.89949 9.16437L8.19437 9.79797C8.34579 9.73488 8.44466 9.62706 8.51712 9.52945C8.58752 9.4346 8.66015 9.31045 8.73906 9.1766L8.10002 8.83935ZM7.77755 9.85298C7.91917 9.87149 8.06349 9.85248 8.19437 9.79797L7.89949 9.16437C7.89274 9.16718 7.8852 9.16815 7.87777 9.16718L7.77755 9.85298ZM9.46932 13.3077C8.76791 13.3077 8.27668 13.307 7.90174 13.2616C7.53702 13.2175 7.33098 13.1357 7.17672 13.0051L6.68872 13.5209C6.99597 13.7811 7.36652 13.8948 7.80887 13.9484C8.241 14.0006 8.78731 14 9.46932 14V13.3077ZM5.88639 10.5031C5.95866 11.1388 6.01601 11.7615 6.11377 12.2665C6.16307 12.5212 6.22526 12.7612 6.31138 12.9695C6.39678 13.1761 6.51459 13.3735 6.68872 13.5209L7.17672 13.0051C7.1201 12.9571 7.05563 12.8692 6.9928 12.7173C6.93071 12.5671 6.87872 12.3753 6.8335 12.1418C6.74219 11.6701 6.689 11.0897 6.6139 10.429L5.88639 10.5031ZM13.3861 10.429C13.311 11.0897 13.2578 11.6701 13.1665 12.1418C13.1213 12.3753 13.0693 12.5671 13.0072 12.7173C12.9444 12.8692 12.8799 12.9571 12.8233 13.0051L13.3113 13.5209C13.4854 13.3735 13.6032 13.1761 13.6886 12.9695C13.7747 12.7612 13.8369 12.5212 13.8862 12.2665C13.984 11.7615 14.0413 11.1388 14.1136 10.5031L13.3861 10.429ZM10.5307 14C11.2127 14 11.759 14.0006 12.1911 13.9484C12.6335 13.8948 13.004 13.7811 13.3113 13.5209L12.8233 13.0051C12.669 13.1357 12.463 13.2175 12.0982 13.2616C11.7233 13.307 11.2321 13.3077 10.5307 13.3077V14ZM9.39024 6.26923C9.39024 5.9506 9.66322 5.69231 10 5.69231V5C9.25912 5 8.65854 5.56826 8.65854 6.26923H9.39024ZM10 5.69231C10.3368 5.69231 10.6098 5.9506 10.6098 6.26923H11.3415C11.3415 5.56826 10.7409 5 10 5V5.69231ZM14.2683 8.11538C14.2683 8.30656 14.1045 8.46154 13.9024 8.46154V9.15385C14.5086 9.15385 15 8.68889 15 8.11538H14.2683ZM13.5366 8.11538C13.5366 7.92421 13.7004 7.76923 13.9024 7.76923V7.07692C13.2963 7.07692 12.8049 7.54186 12.8049 8.11538H13.5366ZM13.9024 7.76923C14.1045 7.76923 14.2683 7.92421 14.2683 8.11538H15C15 7.54186 14.5086 7.07692 13.9024 7.07692V7.76923ZM6.09756 8.46154C5.89551 8.46154 5.73171 8.30656 5.73171 8.11538H5C5 8.68889 5.4914 9.15385 6.09756 9.15385V8.46154ZM5.73171 8.11538C5.73171 7.92421 5.89551 7.76923 6.09756 7.76923V7.07692C5.4914 7.07692 5 7.54186 5 8.11538H5.73171ZM6.09756 7.76923C6.29961 7.76923 6.46341 7.92421 6.46341 8.11538H7.19512C7.19512 7.54186 6.70373 7.07692 6.09756 7.07692V7.76923ZM13.9024 8.46154C13.901 8.46154 13.8995 8.46153 13.898 8.46152L13.8896 9.15375C13.8939 9.1538 13.8981 9.15385 13.9024 9.15385V8.46154ZM14.2031 9.71628C14.2266 9.50863 14.2473 9.32729 14.2586 9.176C14.2698 9.0278 14.274 8.88565 14.2564 8.76168L13.5312 8.85362C13.5383 8.90429 13.5392 8.98806 13.5288 9.12708C13.5186 9.263 13.4997 9.43012 13.4756 9.64225L14.2031 9.71628ZM13.898 8.46152C13.7893 8.46032 13.6921 8.41459 13.6254 8.34146L13.0717 8.79403C13.2698 9.011 13.5625 9.1502 13.8896 9.15375L13.898 8.46152ZM13.6254 8.34146C13.5698 8.28061 13.5366 8.2021 13.5366 8.11538H12.8049C12.8049 8.37451 12.9057 8.61223 13.0717 8.79403L13.6254 8.34146ZM12.9267 9.39685C13.2572 9.0854 13.4274 8.92843 13.5407 8.86229L13.1563 8.27319C12.9515 8.39281 12.7059 8.62783 12.4103 8.90637L12.9267 9.39685ZM6.46341 8.11538C6.46341 8.2021 6.43019 8.28061 6.37463 8.34146L6.92833 8.79403C7.09434 8.61223 7.19512 8.37451 7.19512 8.11538H6.46341ZM7.58965 8.90637C7.29413 8.62783 7.04847 8.39281 6.84364 8.27319L6.45932 8.86229C6.57257 8.92843 6.74279 9.0854 7.07327 9.39685L7.58965 8.90637ZM6.37463 8.34146C6.30785 8.41459 6.21069 8.46032 6.10197 8.46152L6.11043 9.15375C6.43744 9.1502 6.73025 9.011 6.92833 8.79403L6.37463 8.34146ZM6.10197 8.46152C6.1005 8.46153 6.09903 8.46154 6.09756 8.46154V9.15385C6.10186 9.15385 6.10615 9.1538 6.11043 9.15375L6.10197 8.46152ZM6.52446 9.64225C6.50035 9.43012 6.4814 9.263 6.47122 9.12708C6.46081 8.98806 6.46164 8.90429 6.46881 8.85362L5.74359 8.76168C5.72603 8.88565 5.73025 9.0278 5.74135 9.176C5.75267 9.32729 5.77334 9.50863 5.79695 9.71628L6.52446 9.64225ZM10.6098 6.26923C10.6098 6.4931 10.4751 6.6878 10.2765 6.78365L10.609 7.40034C11.043 7.19085 11.3415 6.76332 11.3415 6.26923H10.6098ZM10.2765 6.78365C10.1939 6.82352 10.1003 6.84615 10 6.84615V7.53846C10.2185 7.53846 10.4259 7.48875 10.609 7.40034L10.2765 6.78365ZM11.0271 7.3585C10.9264 7.18778 10.836 7.03421 10.753 6.90855L10.1325 7.27543C10.2037 7.38326 10.2843 7.51976 10.388 7.69571L11.0271 7.3585ZM10 6.84615C9.89971 6.84615 9.8061 6.82352 9.72351 6.78365L9.39098 7.40034C9.57415 7.48875 9.78146 7.53846 10 7.53846V6.84615ZM9.72351 6.78365C9.52493 6.6878 9.39024 6.4931 9.39024 6.26923H8.65854C8.65854 6.76332 8.95701 7.19085 9.39098 7.40034L9.72351 6.78365ZM9.612 7.69572C9.71571 7.51976 9.79629 7.38326 9.86751 7.27543L9.24698 6.90855C9.164 7.03421 9.07356 7.18778 8.97294 7.3585L9.612 7.69572Z" fill="#C1C9E5"/>
</svg>
