<svg width="20" height="20" viewBox="0 0 20 20" fill="none" xmlns="http://www.w3.org/2000/svg">
<g clip-path="url(#clip0_0_1442)">
<path d="M17.9834 7.07566L15.3135 16.918C15.2556 17.1314 15.0594 17.2725 14.8457 17.2726C14.8043 17.2726 14.7624 17.2673 14.7206 17.2563L8.18933 15.5276C7.93147 15.4594 7.77791 15.1966 7.84703 14.9419L7.91746 14.6823C7.96188 14.5187 8.13218 14.4217 8.29786 14.4654C8.46354 14.5093 8.56185 14.6775 8.51744 14.8412L8.48248 14.97L14.7489 16.6285L17.3479 7.04761L14.6897 6.34406C14.524 6.30019 14.4256 6.13197 14.47 5.96832C14.5145 5.80467 14.6849 5.70763 14.8504 5.75139L17.6411 6.48998C17.899 6.55829 18.0526 6.821 17.9834 7.07566ZM7.73294 4.00779C7.5614 4.00779 7.42236 4.14513 7.42236 4.31457V4.60653C7.42236 4.77597 7.5614 4.91331 7.73294 4.91331C7.90449 4.91331 8.04353 4.77597 8.04353 4.60653V4.31457C8.04353 4.14513 7.90449 4.00779 7.73294 4.00779ZM11.6933 8.12318C11.7692 8.22932 11.7692 8.37126 11.6933 8.47744L10.2537 10.4884C10.1955 10.5697 10.1009 10.6181 10.0001 10.6181C9.89926 10.6181 9.80467 10.5697 9.74649 10.4884L8.30683 8.47744C8.23084 8.37129 8.23084 8.22936 8.30683 8.12318L9.74649 6.1122C9.8047 6.0309 9.89926 5.98254 10.0001 5.98254C10.1009 5.98254 10.1955 6.03087 10.2537 6.1122L11.6933 8.12318ZM11.0593 8.30029L10.0001 6.82066L8.94084 8.30029L10.0001 9.77989L11.0593 8.30029ZM13.8372 15.0769L13.7607 15.3589C13.7164 15.5226 13.8147 15.6908 13.9804 15.7346C14.0073 15.7417 14.0343 15.7452 14.0609 15.7452C14.1981 15.7452 14.3236 15.6547 14.3608 15.5177L14.4372 15.2357C14.4816 15.072 14.3833 14.9038 14.2176 14.86C14.0519 14.8161 13.8816 14.9133 13.8372 15.0769ZM5.87797 9.4577C5.9669 9.43418 6.05245 9.42058 6.1352 9.41697V3.2055C6.1352 2.9418 6.35237 2.72729 6.6193 2.72729H13.3809C13.6478 2.72729 13.865 2.9418 13.865 3.2055V9.41694C13.9477 9.42055 14.0333 9.43415 14.1221 9.45767C14.6919 9.60847 15.0313 10.1891 14.8786 10.7519C14.7309 11.2964 14.2592 11.71 13.865 11.9928V13.3951C13.865 13.6587 13.6478 13.8733 13.3809 13.8733H6.6193C6.35237 13.8733 6.1352 13.6587 6.1352 13.3951V11.9928C5.74104 11.7101 5.26926 11.2965 5.12146 10.7519C5.0475 10.4793 5.0855 10.1946 5.22844 9.95009C5.37137 9.70562 5.60207 9.53072 5.87797 9.4577ZM13.865 11.2008C14.0904 10.9904 14.2247 10.7918 14.2786 10.5931C14.3426 10.3571 14.2003 10.1136 13.9613 10.0503C13.9252 10.0408 13.8933 10.035 13.865 10.032V11.2008ZM6.75637 13.2598H13.2438V11.8383C13.2438 11.8356 13.2438 11.8329 13.2438 11.8301V9.78811C13.2437 9.78367 13.2437 9.77921 13.2438 9.77478V3.34085H6.75637V9.77488C6.75647 9.77931 6.75647 9.78378 6.75637 9.78824V11.83C6.7564 11.8328 6.7564 11.8357 6.75637 11.8386V13.2598ZM5.72147 10.5931C5.77541 10.7918 5.90979 10.9905 6.1352 11.2009V10.032C6.10683 10.035 6.07495 10.0408 6.03878 10.0503C5.92307 10.0809 5.82634 10.1543 5.76637 10.2569C5.70642 10.3595 5.69048 10.4789 5.72147 10.5931ZM7.98997 15.9037L5.25121 16.6285L2.65211 7.04764L5.31039 6.34406C5.47607 6.30019 5.57442 6.13197 5.53001 5.96832C5.4856 5.80467 5.31519 5.70756 5.14965 5.75139L2.35896 6.49002C2.23424 6.52301 2.12992 6.60216 2.06521 6.71288C2.00048 6.82362 1.98322 6.95247 2.01666 7.07569L4.68664 16.918C4.72004 17.0412 4.80018 17.1443 4.91233 17.2083C4.98708 17.2509 5.06993 17.2727 5.1539 17.2727C5.19586 17.2727 5.23806 17.2673 5.27965 17.2563L8.15078 16.4964C8.31646 16.4526 8.41481 16.2843 8.3704 16.1207C8.32595 15.9569 8.15565 15.8599 7.98997 15.9037ZM3.77025 7.44213C3.60457 7.486 3.50625 7.65421 3.55063 7.81786L3.62714 8.0999C3.66434 8.23696 3.78981 8.32736 3.92695 8.32736C3.95356 8.32736 3.98062 8.32395 4.00753 8.31682C4.17321 8.27295 4.27153 8.10474 4.22715 7.94109L4.15064 7.65905C4.10623 7.49537 3.936 7.39829 3.77025 7.44213ZM12.2672 11.6873C12.0956 11.6873 11.9566 11.8246 11.9566 11.9941V12.286C11.9566 12.4555 12.0956 12.5928 12.2672 12.5928C12.4387 12.5928 12.5778 12.4555 12.5778 12.286V11.9941C12.5778 11.8246 12.4387 11.6873 12.2672 11.6873Z" fill="#C1C9E5"/>
</g>
<defs>
<clipPath id="clip0_0_1442">
<rect width="16" height="16" fill="white" transform="translate(2 2)"/>
</clipPath>
</defs>
</svg>
