<svg width="16" height="16" viewBox="0 0 16 16" fill="none" xmlns="http://www.w3.org/2000/svg">
<g clip-path="url(#clip0_0_1377)">
<path d="M14.0629 8.24285C14.197 8.24285 14.3054 8.13424 14.3054 8.00043C14.3054 7.86662 14.197 7.75802 14.0629 7.75802H13.3296C13.3156 7.44966 13.2748 7.14833 13.2106 6.85572L13.9192 6.66589C14.0484 6.63145 14.1252 6.49836 14.0906 6.36915C14.0562 6.23947 13.9231 6.1631 13.7939 6.19751L13.0857 6.38733C12.9929 6.09546 12.8751 5.81498 12.7354 5.54734L13.372 5.17981C13.4881 5.1129 13.5279 4.96478 13.461 4.84867C13.3936 4.73256 13.2452 4.69305 13.1296 4.75995L12.4923 5.1277C12.3279 4.87171 12.1435 4.63001 11.9388 4.40626L12.4591 3.886C12.5536 3.79145 12.5536 3.63799 12.4591 3.54322C12.3643 3.44867 12.2108 3.44867 12.1163 3.54322L11.596 4.06347C11.3723 3.8591 11.1303 3.67438 10.8743 3.51001L11.2421 2.8729C11.3092 2.75702 11.2695 2.60867 11.1534 2.54151C11.0377 2.47461 10.8891 2.51435 10.8222 2.63049L10.4547 3.26685C10.187 3.12745 9.90655 3.00964 9.61468 2.9168L9.80473 2.20915C9.83939 2.07969 9.7628 1.94685 9.63334 1.91219C9.50462 1.87776 9.37104 1.95438 9.33638 2.08336L9.14632 2.79197C8.85371 2.72773 8.55263 2.68725 8.24402 2.67319L8.24428 1.93986C8.24428 1.80606 8.13593 1.69745 8.00186 1.69745C7.86806 1.69745 7.75945 1.80606 7.75945 1.93986L7.75922 2.67319C7.4511 2.68725 7.14976 2.72799 6.85715 2.79222L6.66732 2.08361C6.63266 1.95441 6.50005 1.87731 6.37058 1.91222C6.24113 1.94665 6.16428 2.07975 6.19919 2.20895L6.38877 2.91731C6.09689 3.01015 5.81641 3.12796 5.54877 3.26736L5.18149 2.63074C5.11459 2.51464 4.96647 2.47486 4.85059 2.54177C4.73448 2.60867 4.6947 2.75705 4.76161 2.87293L5.12936 3.51052C4.87337 3.67512 4.63166 3.85961 4.40791 4.06421L3.88791 3.54373C3.79314 3.44893 3.63968 3.44918 3.54488 3.54347C3.45033 3.63824 3.45033 3.79171 3.54488 3.88651L4.06488 4.40699C3.86076 4.63074 3.67601 4.8727 3.51189 5.1287L2.87456 4.7602C2.75868 4.69305 2.61033 4.73282 2.5434 4.84893C2.47649 4.96481 2.51601 5.11293 2.63189 5.18009L3.26874 5.5481C3.12934 5.81574 3.01152 6.09623 2.91868 6.3881L2.21056 6.19756C2.08184 6.16339 1.94848 6.23949 1.9136 6.36895C1.87894 6.49816 1.95553 6.63126 2.08476 6.66591L2.79385 6.85645C2.72962 7.14907 2.68914 7.45015 2.67507 7.75853L1.94149 7.75805H1.94127C1.80746 7.75805 1.69908 7.8664 1.69885 8.00023C1.69885 8.13429 1.8072 8.2429 1.94104 8.2429L2.6751 8.24339C2.68917 8.55174 2.7299 8.85307 2.79414 9.14569L2.0853 9.33478C1.95584 9.36944 1.87899 9.50231 1.91343 9.63174C1.94252 9.74009 2.04044 9.81162 2.1476 9.81162C2.16845 9.81162 2.18931 9.80895 2.21016 9.80339L2.91925 9.61404C3.01209 9.90569 3.1299 10.1862 3.26931 10.4538L2.63246 10.8206C2.51635 10.8875 2.47658 11.0359 2.54326 11.1517C2.58811 11.2296 2.66956 11.2732 2.75368 11.2732C2.79465 11.2732 2.8361 11.2628 2.87442 11.2409L3.51249 10.8732C3.67686 11.1292 3.86132 11.3709 4.06595 11.5946L3.54522 12.1144C3.45042 12.2089 3.45019 12.3624 3.54473 12.4572C3.59226 12.5047 3.65431 12.5284 3.71638 12.5284C3.77845 12.5284 3.8405 12.5049 3.88777 12.4576L4.40874 11.9376C4.63249 12.1418 4.87419 12.3265 5.13019 12.4906L4.76169 13.1277C4.69479 13.2436 4.73431 13.3917 4.85041 13.4589C4.88848 13.4809 4.93016 13.4913 4.97138 13.4913C5.05502 13.4913 5.13647 13.4482 5.18155 13.3704L5.54956 12.7338C5.8172 12.8732 6.09769 12.991 6.38956 13.0838L6.19925 13.7915C6.16434 13.9209 6.24095 14.0538 6.37041 14.0887C6.39127 14.0942 6.4126 14.0969 6.43345 14.0969C6.54036 14.0969 6.63831 14.0256 6.6674 13.9175L6.85794 13.2087C7.15056 13.2732 7.45189 13.3136 7.76002 13.3277L7.75953 14.0608C7.75953 14.1949 7.86789 14.3035 8.00172 14.3035H8.00195C8.13576 14.3035 8.24436 14.1951 8.24436 14.0613L8.24485 13.3277C8.55297 13.3136 8.85453 13.2732 9.14715 13.2087L9.33647 13.9173C9.36533 14.0256 9.46326 14.0972 9.57042 14.0972C9.59127 14.0972 9.61235 14.0945 9.6332 14.0889C9.76266 14.0543 9.83925 13.9214 9.80485 13.792L9.6155 13.0838C9.90715 12.991 10.1879 12.8732 10.4552 12.7338L10.8223 13.3704C10.8669 13.4482 10.9486 13.4916 11.0324 13.4916C11.0734 13.4916 11.1151 13.4812 11.1532 13.4594C11.2693 13.3925 11.3093 13.2441 11.2421 13.1282L10.8749 12.4906C11.1306 12.3263 11.3726 12.1418 11.5963 11.9372L12.1158 12.4574C12.1631 12.5049 12.2254 12.5287 12.2875 12.5287C12.3496 12.5287 12.4114 12.5049 12.4589 12.4577C12.5534 12.3631 12.5534 12.2097 12.4591 12.1149L11.9391 11.5944C12.1437 11.3707 12.3282 11.129 12.4926 10.873L13.129 11.241C13.1675 11.263 13.2092 11.2734 13.2502 11.2734C13.3341 11.2734 13.4155 11.2301 13.4604 11.1522C13.5275 11.0363 13.4877 10.8882 13.3719 10.8211L12.7358 10.4533C12.8752 10.1857 12.993 9.90495 13.0858 9.6133L13.7932 9.80336C13.8143 9.80918 13.8356 9.81185 13.8562 9.81185C13.9631 9.81185 14.0611 9.74057 14.0902 9.63222C14.1251 9.50302 14.0483 9.36992 13.919 9.33526L13.2107 9.14495C13.2752 8.85233 13.3156 8.551 13.3297 8.24287H14.0629V8.24285ZM8.00235 12.8489C5.32888 12.8489 3.15385 10.6739 3.15385 8.00043C3.15385 5.32697 5.32888 3.15194 8.00235 3.15194C10.6758 3.15194 12.8508 5.32697 12.8508 8.00043C12.8508 10.6739 10.6758 12.8489 8.00235 12.8489Z" fill="#C1C9E5" stroke="#C1C9E5" stroke-width="0.125"/>
<path d="M10.9091 7.27274C10.5935 7.27274 10.327 7.47589 10.2267 7.7576H9.43274C9.32995 7.14984 8.85018 6.67007 8.24243 6.56728V5.77359C8.52387 5.67299 8.72728 5.40657 8.72728 5.09092C8.72728 4.68995 8.40098 4.36365 8.00001 4.36365C7.59905 4.36365 7.27274 4.68995 7.27274 5.09092C7.27274 5.40655 7.47589 5.67299 7.7576 5.77334V6.56728C7.14984 6.67007 6.67007 7.14984 6.56728 7.7576H5.77359C5.67299 7.47589 5.40657 7.27274 5.09092 7.27274C4.68995 7.27274 4.36365 7.59905 4.36365 8.00001C4.36365 8.40098 4.68995 8.72728 5.09092 8.72728C5.40655 8.72728 5.67299 8.52413 5.77359 8.24243H6.56728C6.67007 8.85018 7.14984 9.32995 7.7576 9.43274V10.2264C7.47589 10.327 7.27274 10.5934 7.27274 10.9091C7.27274 11.3101 7.59905 11.6364 8.00001 11.6364C8.40098 11.6364 8.72728 11.3101 8.72728 10.9091C8.72728 10.5935 8.5239 10.327 8.24243 10.2264V9.43274C8.85018 9.32995 9.32995 8.85018 9.43274 8.24243H10.2267C10.3271 8.52413 10.5935 8.72728 10.9091 8.72728C11.3101 8.72728 11.6364 8.40098 11.6364 8.00001C11.6364 7.59905 11.3101 7.27274 10.9091 7.27274ZM5.09092 8.24243C4.95734 8.24243 4.84851 8.13359 4.84851 8.00001C4.84851 7.86643 4.95734 7.7576 5.09092 7.7576C5.2245 7.7576 5.33333 7.86643 5.33333 8.00001C5.33333 8.13359 5.2245 8.24243 5.09092 8.24243ZM8.00001 4.84851C8.13359 4.84851 8.24243 4.95734 8.24243 5.09092C8.24243 5.2245 8.13359 5.33333 8.00001 5.33333C7.86643 5.33333 7.7576 5.2245 7.7576 5.09092C7.7576 4.95734 7.86643 4.84851 8.00001 4.84851ZM8.00001 11.1515C7.86643 11.1515 7.7576 11.0427 7.7576 10.9091C7.7576 10.7755 7.86643 10.6667 8.00001 10.6667C8.13359 10.6667 8.24243 10.7755 8.24243 10.9091C8.24243 11.0427 8.13359 11.1515 8.00001 11.1515ZM8.00001 8.9697C7.46521 8.9697 7.03032 8.53478 7.03032 8.00001C7.03032 7.46521 7.46524 7.03032 8.00001 7.03032C8.53481 7.03032 8.9697 7.46524 8.9697 8.00001C8.9697 8.53481 8.53481 8.9697 8.00001 8.9697ZM10.9091 8.24243C10.7753 8.24243 10.6667 8.13359 10.6667 8.00001C10.6667 7.86643 10.7753 7.7576 10.9091 7.7576C11.0429 7.7576 11.1515 7.86643 11.1515 8.00001C11.1515 8.13359 11.0429 8.24243 10.9091 8.24243Z" fill="#C1C9E5" stroke="#C1C9E5" stroke-width="0.125"/>
<path d="M8.00002 0.727295C3.98985 0.727295 0.727295 3.98985 0.727295 8.00002C0.727295 12.0102 3.98985 15.2727 8.00002 15.2727C12.0102 15.2727 15.2727 12.0102 15.2727 8.00002C15.2727 3.98985 12.0102 0.727295 8.00002 0.727295ZM8.00002 14.7879C4.25724 14.7879 1.21215 11.7428 1.21215 8.00002C1.21215 4.25724 4.25724 1.21215 8.00002 1.21215C11.7428 1.21215 14.7879 4.25724 14.7879 8.00002C14.7879 11.7428 11.7428 14.7879 8.00002 14.7879Z" fill="#C1C9E5" stroke="#C1C9E5" stroke-width="0.125"/>
</g>
<defs>
<clipPath id="clip0_0_1377">
<rect width="16" height="16" fill="white"/>
</clipPath>
</defs>
</svg>
