<svg width="20" height="20" viewBox="0 0 20 20" fill="none" xmlns="http://www.w3.org/2000/svg">
<path d="M10.851 18H4.70742C3.35584 18 2.25 16.8923 2.25 15.5385V4.46154C2.25 3.10769 3.35584 2 4.70742 2H10.851C12.2026 2 13.3084 3.10769 13.3084 4.46154V15.5385C13.3084 16.8923 12.2026 18 10.851 18Z" stroke="#C1C9E5" stroke-miterlimit="10" stroke-linecap="round" stroke-linejoin="round"/>
<path d="M13.3084 4.09241L16.3802 5.93856C17.5475 6.61548 17.9161 8.15395 17.1789 9.32318L13.3084 15.8463" stroke="#C1C9E5" stroke-miterlimit="10" stroke-linecap="round" stroke-linejoin="round"/>
<path d="M16.9946 9.99976L17.3017 10.4305C18.1004 11.5382 17.7932 13.0767 16.6874 13.8767L13.1855 16.3382" stroke="#C1C9E5" stroke-miterlimit="10" stroke-linecap="round" stroke-linejoin="round"/>
<path d="M4.70703 4.46143V5.6922" stroke="#C1C9E5" stroke-miterlimit="10" stroke-linecap="round" stroke-linejoin="round"/>
<path d="M10.8516 14.3076V15.5384" stroke="#C1C9E5" stroke-miterlimit="10" stroke-linecap="round" stroke-linejoin="round"/>
<path d="M6.18156 10.3693C6.48873 10.677 6.98022 10.677 7.2874 10.3693L7.77888 9.87704L8.27037 10.3693C8.57754 10.677 9.06903 10.677 9.37621 10.3693C9.68338 10.0617 9.68338 9.5078 9.37621 9.20011L8.88472 8.7078L7.77888 7.53857L6.67304 8.7078L6.18156 9.20011C5.87438 9.5078 5.87438 10.0617 6.18156 10.3693Z" stroke="#C1C9E5" stroke-miterlimit="10" stroke-linecap="round" stroke-linejoin="round"/>
<path d="M7.16406 12.4614H8.39277" stroke="#C1C9E5" stroke-miterlimit="10" stroke-linecap="round" stroke-linejoin="round"/>
<path d="M7.77924 10.6152V11.846" stroke="#C1C9E5" stroke-miterlimit="10" stroke-linecap="round" stroke-linejoin="round"/>
</svg>
