<svg width="50" height="22" viewBox="0 0 50 22" fill="none" xmlns="http://www.w3.org/2000/svg">
<path fill-rule="evenodd" clip-rule="evenodd" d="M9.24377 3.52399C8.66187 4.21801 7.73083 4.76541 6.7998 4.68721C6.68342 3.74882 7.13924 2.75178 7.67265 2.13596C8.25454 1.42239 9.27286 0.9141 10.0972 0.875C10.1942 1.85249 9.81596 2.81043 9.24377 3.52399ZM10.0875 4.87227C9.2673 4.82469 8.51888 5.12089 7.91436 5.36014C7.52534 5.5141 7.19591 5.64448 6.94528 5.64448C6.66403 5.64448 6.321 5.50713 5.93585 5.35292C5.43119 5.15085 4.85421 4.91983 4.24916 4.93092C2.86231 4.95047 1.57244 5.74223 0.864462 7.00319C-0.590279 9.52511 0.48623 13.2591 1.89248 15.3118C2.58106 16.3284 3.40541 17.4428 4.49162 17.4037C4.96948 17.3855 5.31323 17.2385 5.66898 17.0863C6.07854 16.9112 6.50401 16.7292 7.16834 16.7292C7.80964 16.7292 8.2165 16.9064 8.60706 17.0765C8.97842 17.2383 9.33505 17.3936 9.86446 17.3841C10.9895 17.3646 11.6974 16.3675 12.386 15.3509C13.1291 14.2599 13.4556 13.1951 13.5052 13.0334L13.5052 13.0334L13.511 13.0147C13.5098 13.0135 13.5006 13.0093 13.4844 13.0018C13.236 12.8872 11.3374 12.0112 11.3192 9.66196C11.3009 7.69015 12.8251 6.6911 13.0651 6.53384C13.0797 6.52427 13.0895 6.51781 13.094 6.51445C12.1242 5.06777 10.6112 4.91137 10.0875 4.87227ZM17.875 17.2781V2.03906H23.5485C26.4774 2.03906 28.5237 4.07224 28.5237 7.0438C28.5237 10.0154 26.4386 12.0681 23.4709 12.0681H20.222V17.2781H17.875ZM20.2227 4.0332H22.9285C24.9651 4.0332 26.1289 5.12799 26.1289 7.05364C26.1289 8.97929 24.9651 10.0839 22.9188 10.0839H20.2227V4.0332ZM36.2725 15.4503C35.6518 16.6428 34.2843 17.3955 32.8102 17.3955C30.6281 17.3955 29.1055 16.0857 29.1055 14.1111C29.1055 12.1561 30.5796 11.032 33.3048 10.8659L36.2337 10.6899V9.84928C36.2337 8.60787 35.4287 7.9334 33.9934 7.9334C32.8102 7.9334 31.9471 8.54922 31.7725 9.48761H29.6583C29.7262 7.51308 31.5688 6.07617 34.0613 6.07617C36.7477 6.07617 38.4934 7.49353 38.4934 9.69288V17.2782H36.321V15.4503H36.2725ZM33.4409 15.5871C32.1898 15.5871 31.3945 14.9811 31.3945 14.0525C31.3945 13.0945 32.1607 12.5374 33.6251 12.4494L36.234 12.2832V13.1434C36.234 14.5705 35.0314 15.5871 33.4409 15.5871ZM45.7004 17.8743C44.7597 20.5429 43.6832 21.4226 41.3944 21.4226C41.2198 21.4226 40.6379 21.403 40.5022 21.3639V19.536C40.6476 19.5556 41.0065 19.5751 41.1907 19.5751C42.2284 19.5751 42.8103 19.1353 43.1692 17.9916L43.3825 17.3171L39.4062 6.22266H41.8599L44.6239 15.2253H44.6724L47.4364 6.22266H49.8222L45.7004 17.8743Z" fill="#F5F8FF"/>
</svg>
