<svg width="80" height="55" viewBox="0 0 80 55" fill="none" xmlns="http://www.w3.org/2000/svg">
<path d="M47.3243 39.8435H33.0469V14.4551H47.3243V39.8435Z" fill="#FF5F00"/>
<path d="M33.9617 27.1464C33.9617 21.9963 36.3988 17.4086 40.1939 14.4522C37.4186 12.2903 33.9161 11 30.1096 11C21.098 11 13.7931 18.2288 13.7931 27.1464C13.7931 36.064 21.098 43.2928 30.1096 43.2928C33.9161 43.2928 37.4186 42.0025 40.1939 39.8406C36.3988 36.8842 33.9617 32.2966 33.9617 27.1464Z" fill="#EB001B"/>
<path d="M66.5795 27.1465C66.5795 36.0641 59.2746 43.293 50.2631 43.293C46.4566 43.293 42.954 42.0026 40.1777 39.8407C43.9739 36.8843 46.4109 32.2967 46.4109 27.1465C46.4109 21.9964 43.9739 17.4088 40.1777 14.4523C42.954 12.2904 46.4566 11.0001 50.2631 11.0001C59.2746 11.0001 66.5795 18.229 66.5795 27.1465Z" fill="#F79E1B"/>
</svg>
