<svg width="68" height="45" viewBox="0 0 68 45" fill="none" xmlns="http://www.w3.org/2000/svg">
<rect width="67.5" height="45" rx="4" fill="#10202D"/>
<path d="M3.43158 11.8438L0.0117188 19.5751H2.23822L2.86923 18.0269H6.53757L7.16531 19.5751H9.44086L6.02426 11.8438H3.43158ZM4.69686 13.6431L5.81502 16.3484H3.57544L4.69686 13.6431Z" fill="#C1C9E5"/>
<path d="M9.67578 19.5751V11.8438L12.8398 11.8552L14.6801 16.8399L16.4763 11.8438H19.615V19.5751H17.6271V13.8783L15.52 19.5751H13.7766L11.6636 13.8783V19.5751H9.67578Z" fill="#C1C9E5"/>
<path d="M20.9766 19.5752V11.8438H27.4632V13.5732H22.9853V14.8956H27.3586V16.5233H22.9853V17.8967H27.4632V19.5752H20.9766Z" fill="#C1C9E5"/>
<path d="M28.6133 11.8438V19.5752H30.6011V16.8285H31.4381L33.8216 19.5752H36.2508L33.6352 16.7268C34.7087 16.6387 35.816 15.7428 35.816 14.352C35.816 12.7251 34.5027 11.8438 33.0369 11.8438H28.6133ZM30.6011 13.5731H32.8734C33.4185 13.5731 33.8151 13.9877 33.8151 14.387C33.8151 14.9006 33.3013 15.2008 32.9029 15.2008H30.6011V13.5731Z" fill="#C1C9E5"/>
<path d="M38.6586 19.5752H36.6289V11.8438H38.6586V19.5752Z" fill="#C1C9E5"/>
<path d="M43.4719 19.5752H43.0338C40.914 19.5752 39.627 17.9513 39.627 15.7413C39.627 13.4766 40.8996 11.8438 43.5765 11.8438H45.7736V13.6749H43.4962C42.4095 13.6749 41.641 14.4995 41.641 15.7603C41.641 17.2576 42.5197 17.8865 43.7858 17.8865H44.3089L43.4719 19.5752Z" fill="#C1C9E5"/>
<path d="M47.7988 11.8438L44.3789 19.5751H46.6054L47.2364 18.0269H50.9048L51.5325 19.5751H53.808L50.3915 11.8438H47.7988ZM49.0641 13.6431L50.1822 16.3484H47.9426L49.0641 13.6431Z" fill="#C1C9E5"/>
<path d="M54.0371 19.5752V11.8438H56.5644L59.7914 16.7013V11.8438H61.7793V19.5752H59.3337L56.025 14.5904V19.5752H54.0371Z" fill="#C1C9E5"/>
<path d="M14.4902 33.1064V25.375H20.9769V27.1044H16.499V28.4269H20.8723V30.0546H16.499V31.4279H20.9769V33.1064H14.4902Z" fill="#C1C9E5"/>
<path d="M46.2734 33.1064V25.375H52.7601V27.1044H48.2822V28.4269H52.6346V30.0546H48.2822V31.4279H52.7601V33.1064H46.2734Z" fill="#C1C9E5"/>
<path d="M21.2295 33.1064L24.3878 29.2884L21.1543 25.375H23.6587L25.5844 27.7942L27.5167 25.375H29.923L26.732 29.2407L29.8961 33.1064H27.3921L25.5223 30.7253L23.6979 33.1064H21.2295Z" fill="#C1C9E5"/>
<path d="M30.1309 25.375V33.1064H32.171V30.6649H34.2635C36.034 30.6649 37.3761 29.7516 37.3761 27.9755C37.3761 26.5041 36.3235 25.375 34.5218 25.375H30.1309ZM32.171 27.1235H34.3747C34.9467 27.1235 35.3555 27.4643 35.3555 28.0136C35.3555 28.5296 34.9487 28.9037 34.3681 28.9037H32.171V27.1235Z" fill="#C1C9E5"/>
<path d="M38.2402 25.375V33.1064H40.2281V30.3597H41.0651L43.4485 33.1064H45.8778L43.2622 30.258C44.3356 30.1699 45.4429 29.2741 45.4429 27.8833C45.4429 26.2563 44.1296 25.375 42.6639 25.375H38.2402ZM40.2281 27.1044H42.5004C43.0455 27.1044 43.442 27.519 43.442 27.9182C43.442 28.4319 42.9282 28.7321 42.5298 28.7321H40.2281V27.1044Z" fill="#C1C9E5"/>
<path d="M53.6821 33.1064V31.4279H57.6604C58.2491 31.4279 58.5039 31.1186 58.5039 30.7794C58.5039 30.4544 58.2499 30.1258 57.6604 30.1258H55.8627C54.3 30.1258 53.4297 29.2 53.4297 27.8102C53.4297 26.5705 54.2267 25.375 56.5488 25.375H60.4199L59.5829 27.1146H56.2349C55.5949 27.1146 55.3979 27.4411 55.3979 27.7529C55.3979 28.0734 55.6414 28.4269 56.1303 28.4269H58.0135C59.7555 28.4269 60.5114 29.3877 60.5114 30.6459C60.5114 31.9985 59.6691 33.1064 57.9187 33.1064H53.6821Z" fill="#C1C9E5"/>
<path d="M60.977 33.1064V31.4279H64.9553C65.544 31.4279 65.7989 31.1186 65.7989 30.7794C65.7989 30.4544 65.5448 30.1258 64.9553 30.1258H63.1576C61.5949 30.1258 60.7246 29.2 60.7246 27.8102C60.7246 26.5705 61.5216 25.375 63.8437 25.375H67.6357L66.8778 27.1146H63.5298C62.8899 27.1146 62.6928 27.4411 62.6928 27.7529C62.6928 28.0734 62.9363 28.4269 63.4252 28.4269H65.3084C67.0504 28.4269 67.8063 29.3877 67.8063 30.6459C67.8063 31.9985 66.964 33.1064 65.2136 33.1064H60.977Z" fill="#C1C9E5"/>
</svg>
