<svg width="45" height="45" viewBox="0 0 45 45" fill="none" xmlns="http://www.w3.org/2000/svg">
<path d="M44.3312 27.9304C41.3288 39.9766 29.128 47.3324 17.0597 44.3282C5.01344 41.3167 -2.33058 29.1158 0.671783 17.0696C3.67415 5.02342 15.8676 -2.33243 27.9065 0.671763C39.9822 3.63914 47.3262 15.8768 44.3312 27.9304Z" fill="#10202D"/>
<path d="M33.1546 19.5428C33.5591 16.5428 31.2796 14.9766 28.1546 13.9177L29.1252 9.85892L26.6546 9.26333L25.7135 13.2339C25.0591 13.0795 24.3973 12.9251 23.7429 12.7927L24.6841 8.82215L22.1841 8.22656L21.2135 12.2854C20.6841 12.1604 20.1473 12.0648 19.6179 11.9398L16.2135 11.1236L15.5885 13.7486C15.5885 13.7486 17.4341 14.153 17.3679 14.1898C18.3679 14.4398 18.5591 15.0942 18.5223 15.5942L17.4267 20.2192C17.4929 20.2486 17.5811 20.2486 17.6767 20.3148C17.5811 20.2854 17.5223 20.2854 17.4267 20.256L15.9267 26.7266C15.8017 27.0354 15.4855 27.4766 14.8017 27.3222C14.8311 27.3516 12.9855 26.881 12.9855 26.881L11.8164 29.7266L15.037 30.4766C15.6326 30.631 16.2282 30.756 16.787 30.9178L15.8164 35.0134L18.287 35.609L19.2576 31.5501C19.9488 31.734 20.6032 31.8957 21.2282 32.0501L20.2576 36.0796L22.7282 36.6751L23.6988 32.5795C27.9193 33.3295 31.0738 32.984 32.3532 29.1384C33.3826 26.0722 32.2576 24.3222 30.0076 23.1678C31.6546 22.7928 32.8458 21.7266 33.1546 19.5428ZM27.5958 27.506C26.8752 30.5722 21.6914 28.9766 20.0296 28.5722L21.3091 23.131C23.0002 23.5428 28.3458 24.2928 27.5958 27.506ZM28.2796 19.5428C27.6252 22.3222 23.3091 20.9839 21.9046 20.6383L23.0958 15.7045C24.4708 16.0428 28.9708 16.6383 28.2796 19.5428Z" fill="#C1C9E5"/>
</svg>
