<svg width="45" height="45" viewBox="0 0 45 45" fill="none" xmlns="http://www.w3.org/2000/svg">
<path d="M44.3312 27.9304C41.3288 39.9766 29.128 47.3324 17.0597 44.3282C5.01344 41.3167 -2.33058 29.1158 0.671783 17.0696C3.67415 5.02342 15.8676 -2.33243 27.9065 0.671763C39.9822 3.63914 47.3262 15.8768 44.3312 27.9304Z" fill="#10202D"/>
<path d="M29.7975 15.2925C28.6151 12.604 25.8914 12.0339 22.5554 12.5899L21.4856 8.4375L18.959 9.09203L20.0147 13.2304C19.3531 13.3993 18.6704 13.5401 17.9948 13.7301L16.9391 9.61285L14.4125 10.2674L15.4822 14.4198C14.9403 14.5747 10.3867 15.743 10.3867 15.743L11.0835 18.4456C11.0835 18.4456 12.9415 17.9247 12.9204 17.967C13.9479 17.6995 14.4336 18.2133 14.6588 18.6989L17.6007 30.0794C17.6359 30.4102 17.5796 30.9732 16.8687 31.1633C16.9109 31.1844 15.0318 31.6348 15.0318 31.6348L15.3063 34.7878C15.3063 34.7878 19.8176 33.6336 20.4088 33.4858L21.4927 37.6875L24.0193 37.033L22.9355 32.8031C23.6322 32.6412 24.3079 32.4723 24.9624 32.3034L26.0392 36.5122L28.5659 35.8576L27.482 31.663C31.374 30.7199 34.1189 28.2636 33.5558 24.5123C33.1969 22.2531 30.7265 20.3951 28.6714 20.184C29.9383 19.0649 30.5787 17.4321 29.7975 15.2925ZM28.5799 25.195C29.0796 28.9111 23.9208 29.3686 22.2106 29.812L20.7255 24.2519C22.4428 23.8085 27.7354 21.9223 28.5799 25.195ZM25.4692 17.6292C26.004 20.93 21.5842 21.3171 20.1625 21.683L18.8112 16.6368C20.2399 16.2779 24.3853 14.5676 25.4692 17.6292Z" fill="#C1C9E5"/>
</svg>
