<svg width="68" height="45" viewBox="0 0 68 45" fill="none" xmlns="http://www.w3.org/2000/svg">
<rect x="0.5" width="67.5" height="45" rx="4" fill="#10202D"/>
<path d="M28.2256 18.0213C28.959 18.0213 29.7971 18.1222 30.4258 18.5252V20.5398C29.9019 19.9354 29.0638 19.532 28.2256 19.532C26.5493 19.6329 25.1872 21.0433 25.292 22.655V22.8562C25.292 24.468 26.6547 25.6775 28.3311 25.6775C29.169 25.6774 29.902 25.2739 30.4258 24.6697V26.6843C29.6925 26.9865 28.9592 27.1882 28.1211 27.1882C25.5018 27.1882 23.4064 25.0728 23.4062 22.5545C23.4062 19.9354 25.5016 17.82 28.2256 18.0213ZM44.6768 24.0633L47.1914 18.0193H49.0771L45.2002 27.1863H44.2578L40.3809 18.0193H42.2666L44.6768 24.0633ZM19.8438 17.8191C20.7866 17.8191 21.7295 18.2216 22.4629 18.8259L21.5205 20.0349C21.1015 19.6321 20.5774 19.33 20.0537 19.3299C19.4251 19.2291 18.9007 19.7332 18.7959 20.3377C18.7961 20.841 19.1108 21.0423 20.1582 21.4451C22.2535 22.2509 22.777 22.8556 22.8818 24.0642V24.367C22.7769 25.9785 21.4154 27.1873 19.7393 27.0867C18.482 27.0867 17.2244 26.4819 16.5957 25.3738L17.748 24.2664C18.0624 24.9713 18.7958 25.4742 19.6338 25.4744H19.7393C20.3678 25.4742 20.9961 24.8699 20.9961 24.1648C20.9959 23.7622 20.7868 23.46 20.4727 23.2586C20.0536 23.0571 19.6339 22.8554 19.2148 22.7547C17.5389 22.251 17.0148 21.5462 17.0146 20.3377V20.2361C17.1196 18.8259 18.377 17.7184 19.8438 17.8191ZM8.94824 18.0193C11.4627 18.1202 13.4533 20.135 13.3486 22.5525C13.3486 23.8621 12.7196 25.0707 11.6719 25.9773C10.7289 26.6825 9.57635 27.0859 8.42383 26.9851H5.80469V18.0193H8.94824ZM15.8633 26.9851H14.082V18.0193H15.8633V26.9851ZM54.9434 19.53H51.6953V21.5457H54.8389V23.0564H51.6953V25.4744H54.9434V26.9851H49.9141V18.0193H54.9434V19.53ZM58.7168 18.0193C60.8122 18.0193 61.9648 18.926 61.9648 20.6384C62.0696 21.948 61.1264 23.0561 59.8691 23.2576L62.6982 26.9851H60.498L58.0889 23.3582H57.8789V26.9851H56.0977V18.0193H58.7168ZM10.5195 20.2361C9.89088 19.7324 8.94753 19.4303 8.10938 19.531H7.58594V25.4754H8.10938C8.94758 25.5761 9.89088 25.2731 10.5195 24.7693C11.1479 24.1649 11.4628 23.3594 11.4629 22.4529C11.4629 21.6469 11.1481 20.8406 10.5195 20.2361ZM57.8789 22.1502H58.4023C59.5549 22.1502 60.0791 21.6458 60.0791 20.739C60.0789 19.9333 59.5547 19.4295 58.4023 19.4295H57.8789V22.1502Z" fill="#C1C9E5"/>
<path fill-rule="evenodd" clip-rule="evenodd" d="M35.7708 17.8125C33.1514 17.8125 30.9512 19.8273 30.9512 22.4465C30.9512 24.9649 33.0467 27.0804 35.7708 27.1811C38.495 27.2819 40.5905 25.1664 40.6953 22.5472C40.5905 19.928 38.495 17.8125 35.7708 17.8125V17.8125Z" fill="#C1C9E5"/>
</svg>
