<svg width="45" height="45" viewBox="0 0 45 45" fill="none" xmlns="http://www.w3.org/2000/svg">
<path d="M22.5 45C34.9264 45 45 34.9264 45 22.5C45 10.0736 34.9264 0 22.5 0C10.0736 0 0 10.0736 0 22.5C0 34.9264 10.0736 45 22.5 45Z" fill="#10202D"/>
<path d="M21.6475 11.1415C23.2222 11.1414 33.6406 10.8095 33.6406 23.1435C33.6404 35.6384 22.8215 34.7562 22.7461 34.7499H14.9971V24.2343H12.2656V21.6581H14.9971V11.1415H21.6475ZM19.3613 21.6561H24.1709V24.2323H19.3613V30.3847H22.5684C23.3932 30.3847 29.3324 30.4788 29.3232 23.2265C29.314 15.9736 23.5614 15.5038 22.418 15.5038H19.3613V21.6561Z" fill="#C1C9E5"/>
</svg>
