<svg width="35" height="35" viewBox="0 0 35 35" fill="none" xmlns="http://www.w3.org/2000/svg">
<path d="M6.68635 32.4591C6.61826 33.9988 5.58864 35 4.21131 35C3.48869 35 2.86817 34.7209 2.37733 34.1692C1.96824 33.7127 1.75 33.1201 1.75 32.4525C1.75 31.7779 2.00906 31.158 2.50682 30.6677C2.9772 30.1973 3.55679 29.9657 4.26586 29.9657C5.25446 29.9657 6.0183 30.4497 6.39311 31.2873H5.52744C5.20682 30.8789 4.75672 30.6677 4.21131 30.6677C3.75447 30.6677 3.33174 30.8443 3.0113 31.1715C2.6704 31.5186 2.47963 31.9961 2.47963 32.4591C2.47963 32.9701 2.65676 33.4332 2.97047 33.7603C3.30455 34.1075 3.7613 34.3053 4.21131 34.3053C4.94085 34.3053 5.51352 33.9168 5.8819 33.1404H3.68646V32.4591H6.68635Z" fill="#C1C9E5"/>
<path d="M8.93381 30.9756L8.23818 32.8146H9.61552L8.93381 30.9756ZM7.44053 34.9062H6.69727L8.59272 30.0628H9.27471L11.17 34.9062H10.3996L9.86774 33.4964H7.98604L7.44053 34.9062Z" fill="#C1C9E5"/>
<path d="M11.4355 34.9062V30.0628H12.4786L13.8832 33.8097L15.2877 30.0628H16.3173V34.9062H15.6561L15.7037 30.7032L14.1288 34.9062H13.631L12.0629 30.7032L12.1105 34.9062H11.4355Z" fill="#C1C9E5"/>
<path d="M19.4029 35C18.6866 35 18.08 34.7343 17.6028 34.2303C17.1459 33.7469 16.9141 33.1472 16.9141 32.4321C16.9141 31.7646 17.1664 31.1511 17.6504 30.6813C18.1278 30.2108 18.7279 29.9657 19.4165 29.9657C20.5483 29.9657 21.5161 30.7086 21.83 31.9005H20.5483C20.2892 31.4235 19.9004 31.1715 19.4232 31.1715C18.7004 31.1715 18.1346 31.7298 18.1346 32.4389C18.1346 33.2086 18.7347 33.8011 19.4029 33.8011C19.8595 33.8011 20.2619 33.556 20.5209 33.1063H21.8097C21.4891 34.2848 20.5685 35 19.4029 35Z" fill="#C1C9E5"/>
<path d="M24.0561 31.6499L23.5722 33.2029H24.5337L24.0561 31.6499ZM23.0065 34.9062H21.7109L23.5722 30.0628H24.5405L26.4018 34.9062H25.0926L24.854 34.2046H23.2519L23.0065 34.9062Z" fill="#C1C9E5"/>
<path d="M27.9143 32.297C28.5007 32.297 28.7868 32.1472 28.7868 31.7111C28.7868 31.3092 28.5349 31.1459 28.0097 31.1459H27.6823V32.297H27.9143ZM26.4961 34.9062V30.0628H28.1052C28.6163 30.0628 29.0051 30.0967 29.3328 30.3283C29.7621 30.6279 29.9871 31.0843 29.9871 31.6839C29.9871 32.4674 29.5779 33.0533 28.8894 33.2438L30.0756 34.9062H28.6096L27.6823 33.3463V34.9062H26.4961Z" fill="#C1C9E5"/>
<path d="M30.6152 34.9062V30.0628H33.247V31.1323H31.8015V31.9156H33.247V32.9919H31.8015V33.8369H33.247V34.9062H30.6152Z" fill="#C1C9E5"/>
<path d="M32.3862 16.7552C32.2561 16.6818 32.1128 16.6322 31.9588 16.6109C31.9227 16.6048 31.8866 16.6035 31.85 16.6C31.8304 16.599 31.8117 16.5941 31.7919 16.5941H31.7369C31.6881 16.593 31.6393 16.5904 31.591 16.5941H22.1116C21.4408 16.5941 20.8969 17.1373 20.8969 17.8072C20.8969 18.4775 21.4408 19.021 22.1116 19.021H25.7947C25.9159 19.0219 26.0145 19.1206 26.0145 19.2422C26.0145 19.3124 25.9771 19.3703 25.9257 19.4107C23.9065 20.4883 21.3091 21.1414 18.4675 21.1414C17.7759 21.1414 17.0998 21.1011 16.4414 21.0274V23.7824C17.0149 23.8244 17.5969 23.8482 18.1879 23.8482C22.1429 23.8482 25.7409 22.8821 28.4376 21.3037L28.4384 21.3074C28.4718 21.2899 28.5094 21.2799 28.5496 21.2799C28.6816 21.2799 28.7885 21.3867 28.7885 21.5186C28.7885 21.5426 28.7842 21.5657 28.7768 21.5882L28.215 23.1127C27.9191 23.9147 28.3298 24.8041 29.1329 25.0994C29.3094 25.1647 29.4902 25.1953 29.6681 25.1953C30.2986 25.1953 30.8905 24.8082 31.1213 24.1826L33.1542 18.6695C33.4301 17.9207 33.0858 17.1019 32.3862 16.7552Z" fill="#C1C9E5"/>
<path d="M18.4675 6.34923C21.3315 6.34923 23.9534 7.00803 25.9795 8.10102C25.9795 8.10102 27.2662 9.02626 27.8785 8.13806C28.5809 7.11891 27.1782 6.48448 27.1782 6.48448C24.6639 5.30331 21.5542 4.60484 18.1879 4.60484C17.5969 4.60484 17.0149 4.62874 16.4414 4.67079V6.46345C17.0998 6.38985 17.7759 6.34923 18.4675 6.34923Z" fill="#C1C9E5"/>
<path d="M3.91143 0.00147247C2.72879 0.00147247 1.76953 0.959692 1.76953 2.14157V25.4929C1.76953 26.675 2.72879 27.6328 3.91143 27.6328H16.4414V23.7856C8.90245 23.2352 3.04681 19.167 3.04681 14.2278C3.04681 9.28829 8.90245 5.22053 16.4414 4.66997V0.00147247H3.91143Z" fill="#C1C9E5"/>
<path d="M6.8418 13.7474C6.8418 17.3929 10.9874 20.4208 16.442 21.0312V6.46327C10.9874 7.07381 6.8418 10.1014 6.8418 13.7474Z" fill="#C1C9E5"/>
</svg>
