<svg width="45" height="45" viewBox="0 0 45 45" fill="none" xmlns="http://www.w3.org/2000/svg">
<path d="M44.3312 27.9304C41.3288 39.9766 29.128 47.3324 17.0597 44.3282C5.01344 41.3167 -2.33058 29.1158 0.671783 17.0696C3.67415 5.02342 15.8676 -2.33243 27.9065 0.671763C39.9822 3.63914 47.3262 15.8768 44.3312 27.9304Z" fill="#10202D"/>
<path d="M20.2718 31.6141L22.5113 24.0623L26.0008 23.0728L26.7299 20.5728L23.2926 21.6145L26.9383 9.21909V9.02119C26.9356 8.94183 26.9173 8.86379 26.8844 8.79152C26.8515 8.71924 26.8047 8.65416 26.7467 8.59998C26.6886 8.54581 26.6205 8.50361 26.5461 8.47579C26.4718 8.44798 26.3926 8.43509 26.3133 8.43787H21.678C21.5026 8.43246 21.3303 8.48593 21.1887 8.58975C21.0472 8.69357 20.9444 8.84178 20.8968 9.01077L16.5741 23.6977L13.1367 24.7394L12.3555 27.1351L15.7928 26.0935L12.72 36.5618H31.0527C31.2286 36.5691 31.4017 36.5164 31.5437 36.4123C31.6857 36.3082 31.788 36.1589 31.8339 35.9889L32.8756 32.3953V32.1974C32.8729 32.1181 32.8546 32.04 32.8217 31.9677C32.7888 31.8955 32.742 31.8304 32.684 31.7762C32.6259 31.722 32.5578 31.6798 32.4834 31.652C32.409 31.6242 32.3299 31.6113 32.2506 31.6141H20.2718Z" fill="#C1C9E5"/>
</svg>
