<svg width="68" height="45" viewBox="0 0 68 45" fill="none" xmlns="http://www.w3.org/2000/svg">
<path d="M29.156 22.2107C29.156 17.9969 31.2122 14.2434 34.4143 11.8245C32.0727 10.0557 29.1174 8.99993 25.9057 8.99993C18.3022 8.99993 12.1387 14.9145 12.1387 22.2107C12.1387 29.5068 18.3022 35.4214 25.9057 35.4214C29.1174 35.4214 32.0727 34.3656 34.4143 32.5968C31.2122 30.1779 29.156 26.4244 29.156 22.2107Z" fill="#C1C9E5"/>
<path d="M56.677 22.2107C56.677 29.5068 50.5135 35.4214 42.91 35.4214C39.6983 35.4214 36.743 34.3656 34.4005 32.5968C37.6035 30.1779 39.6598 26.4244 39.6598 22.2107C39.6598 17.9969 37.6035 14.2434 34.4005 11.8245C36.743 10.0557 39.6983 8.99993 42.91 8.99993C50.5135 8.99993 56.677 14.9145 56.677 22.2107Z" fill="#C1C9E5"/>
</svg>
