<svg width="45" height="45" viewBox="0 0 45 45" fill="none" xmlns="http://www.w3.org/2000/svg">
<path d="M44.3312 27.9304C41.3288 39.9766 29.128 47.3324 17.0597 44.3282C5.01344 41.3167 -2.33058 29.1158 0.671783 17.0696C3.67415 5.02342 15.8676 -2.33243 27.9065 0.671763C39.9822 3.63914 47.3262 15.8768 44.3312 27.9304Z" fill="#10202D"/>
<path d="M32.5749 10.75H36.6357L28.1757 19.3041C25.1113 22.4061 20.148 22.4061 17.0836 19.3041L8.62354 10.75H12.6844L19.114 17.2549C21.0128 19.1913 24.1524 19.2101 26.0889 17.3113C26.1077 17.2925 26.1265 17.2737 26.1453 17.2549L32.5749 10.75ZM12.6468 34.5322H8.58594L17.1024 25.9217C20.1668 22.8197 25.1301 22.8197 28.1945 25.9217L36.7109 34.5322H32.6501L26.1829 27.9897C24.284 26.0533 21.1444 26.0345 19.208 27.9333C19.1892 27.9521 19.1704 27.9709 19.1516 27.9897L12.6468 34.5322Z" fill="#C1C9E5"/>
</svg>
