<svg width="45" height="45" viewBox="0 0 45 45" fill="none" xmlns="http://www.w3.org/2000/svg">
<path d="M44.3312 27.9304C41.3288 39.9766 29.128 47.3324 17.0597 44.3282C5.01344 41.3167 -2.33058 29.1158 0.671783 17.0696C3.67415 5.02342 15.8676 -2.33243 27.9065 0.671763C39.9822 3.63914 47.3262 15.8768 44.3312 27.9304Z" fill="#10202D"/>
<path d="M9.40132 17.5311C6.68242 24.75 10.4325 32.9062 17.745 35.5311C18.0262 35.7187 18.3075 36.0936 18.3075 36.3748V37.6875C18.3075 37.8749 18.3075 37.9687 18.2137 38.0623C18.1201 38.4374 17.745 38.6248 17.3699 38.4374C12.12 36.7499 8.08867 32.7186 6.40117 27.4687C3.58867 18.5625 8.46374 9.0936 17.3699 6.2811C17.4637 6.1875 17.6512 6.1875 17.745 6.1875C18.1201 6.2811 18.3075 6.56235 18.3075 6.93742V8.24985C18.3075 8.71875 18.1201 9 17.745 9.18742C13.9013 10.5937 10.8076 13.5936 9.40132 17.5311Z" fill="#C1C9E5"/>
<path d="M26.8388 6.65617C26.9324 6.2811 27.3075 6.09367 27.6826 6.2811C32.8387 7.9686 36.9638 11.9999 38.6513 17.3437C41.4638 26.2498 36.5887 35.7188 27.6826 38.5312C27.5887 38.6248 27.4013 38.6248 27.3075 38.6248C26.9324 38.5312 26.745 38.25 26.745 37.8749V36.5625C26.745 36.0936 26.9324 35.8123 27.3075 35.6249C31.1512 34.2187 34.2449 31.2188 35.6512 27.2812C38.3701 20.0623 34.62 11.9061 27.3075 9.28125C27.0262 9.0936 26.745 8.71875 26.745 8.34367V7.03125C26.745 6.8436 26.745 6.75 26.8388 6.65617Z" fill="#C1C9E5"/>
<path d="M22.8074 20.8126C26.7449 21.2812 28.7137 22.4062 28.7137 25.6874C28.7137 28.2187 26.8387 30.1874 24.0262 30.6563V32.9063C23.9324 33.375 23.6512 33.6562 23.2761 33.6562H21.8698C21.4012 33.5624 21.1199 33.2812 21.1199 32.9063V30.6563C18.0262 30.1874 16.5261 28.4999 16.1512 26.1563V26.0625C16.1512 25.6874 16.4325 25.4062 16.8073 25.4062H18.4012C18.6825 25.4062 18.9637 25.5938 19.0573 25.9687C19.3386 27.3749 20.1823 28.4063 22.62 28.4063C24.4011 28.4063 25.7137 27.3751 25.7137 25.8751C25.7137 24.375 24.87 23.8125 22.2449 23.3438C18.3074 22.8749 16.4325 21.6563 16.4325 18.5626C16.4325 16.2187 18.2136 14.3438 21.0261 13.9687V11.8126C21.1199 11.3437 21.4012 11.0624 21.7762 11.0624H23.1825C23.6512 11.1562 23.9324 11.4375 23.9324 11.8126V14.0626C26.0886 14.25 27.7761 15.8437 28.1512 17.9062V18.0001C28.1512 18.3749 27.8699 18.6562 27.4948 18.6562H25.995C25.7137 18.6562 25.4325 18.4687 25.3387 18.1875C24.87 16.7812 23.9324 16.2187 22.2449 16.2187C20.37 16.2187 19.4324 17.0623 19.4324 18.3749C19.4324 19.6876 19.9949 20.4375 22.8074 20.8126Z" fill="#C1C9E5"/>
</svg>
