<svg width="22" height="22" viewBox="0 0 22 22" fill="none" xmlns="http://www.w3.org/2000/svg">
<path d="M21.6615 8.14609C21.6615 9.44172 20.611 10.4923 19.3153 10.4923H2.34622C1.05058 10.4923 0 9.44172 0 8.14609V2.34622C0 1.05058 1.05058 0 2.34622 0H19.3157C20.6113 0 21.6619 1.05058 21.6619 2.34622L21.6615 8.14609ZM20.3077 2.34622C20.3077 1.79825 19.8633 1.35385 19.3153 1.35385H2.34622C1.79825 1.35385 1.35385 1.79825 1.35385 2.34622V8.14643C1.35385 8.6944 1.79825 9.1388 2.34622 9.1388H19.3157C19.8636 9.1388 20.308 8.6944 20.308 8.14643L20.3077 2.34622Z" fill="#C1C9E5"/>
<path d="M14.5538 19.6539C14.5538 20.9495 13.5033 22.0001 12.2076 22.0001H2.34622C1.05058 22.0001 0 20.9495 0 19.6539V13.854C0 12.5584 1.05058 11.5078 2.34622 11.5078H12.208C13.5036 11.5078 14.5542 12.5584 14.5542 13.854L14.5538 19.6539ZM13.2 13.854C13.2 13.3061 12.7556 12.8617 12.2076 12.8617H2.34622C1.79825 12.8617 1.35385 13.3061 1.35385 13.854V19.6542C1.35385 20.2022 1.79825 20.6466 2.34622 20.6466H12.208C12.7559 20.6466 13.2003 20.2022 13.2003 19.6542L13.2 13.854Z" fill="#C1C9E5"/>
<path d="M22 19.6539C22 20.9495 20.9494 22.0001 19.6537 22.0001H17.9151C16.6194 22.0001 15.5688 20.9495 15.5688 19.6539V13.854C15.5688 12.5584 16.6194 11.5078 17.9151 11.5078H19.6537C20.9494 11.5078 22 12.5584 22 13.854V19.6539ZM20.6461 13.854C20.6461 13.3061 20.2017 12.8617 19.6537 12.8617H17.9151C17.3671 12.8617 16.9227 13.3061 16.9227 13.854V19.6542C16.9227 20.2022 17.3671 20.6466 17.9151 20.6466H19.6537C20.2017 20.6466 20.6461 20.2022 20.6461 19.6542V13.854Z" fill="#C1C9E5"/>
</svg>
