<svg width="40" height="40" viewBox="0 0 40 40" fill="none" xmlns="http://www.w3.org/2000/svg">
<path d="M20 10.75C20.1138 10.75 20.3148 10.7943 20.708 11.3076C21.1017 11.8217 21.5459 12.6155 22.1914 13.7734L22.5195 14.3613C22.8469 14.9484 23.1066 15.4449 23.542 15.7754C23.9818 16.1091 24.524 16.2159 25.1582 16.3594L25.7949 16.5039C27.0502 16.7879 27.9043 16.9834 28.4893 17.2139C29.0599 17.4388 29.1806 17.6228 29.2266 17.7705C29.275 17.9263 29.2767 18.1651 28.9355 18.707C28.5892 19.2572 28.004 19.9432 27.1494 20.9424L26.7158 21.4502C26.2801 21.9597 25.9117 22.3688 25.748 22.8945V22.8955C25.5857 23.4182 25.6528 23.9695 25.7188 24.6504L25.7842 25.3271C25.9132 26.6591 26.0001 27.5766 25.9707 28.2373C25.945 28.8137 25.8355 29.0257 25.7344 29.126L25.6914 29.1631C25.5928 29.2379 25.4103 29.3203 24.8174 29.1504C24.2146 28.9777 23.4134 28.6113 22.2383 28.0703L21.6426 27.7959C21.0511 27.5236 20.5498 27.2744 20 27.2744C19.4502 27.2744 18.9489 27.5236 18.3574 27.7959L17.7617 28.0703C16.5866 28.6113 15.7854 28.9777 15.1826 29.1504C14.5896 29.3203 14.4071 29.2378 14.3086 29.1631C14.1979 29.079 14.0587 28.8965 14.0293 28.2373C13.9999 27.5766 14.0867 26.6591 14.2158 25.3271L14.2812 24.6504C14.3472 23.9694 14.4146 23.4175 14.252 22.8945C14.0883 22.3688 13.7199 21.9597 13.2842 21.4502L12.8506 20.9424H12.8496C11.9952 19.9433 11.4108 19.2572 11.0645 18.707C10.7233 18.1651 10.725 17.9263 10.7734 17.7705C10.8194 17.6228 10.9401 17.4388 11.5107 17.2139C12.0957 16.9834 12.9498 16.7879 14.2051 16.5039L14.8418 16.3594C15.4759 16.2159 16.0182 16.1091 16.458 15.7754C16.8933 15.445 17.1531 14.9486 17.4805 14.3613L17.8086 13.7734C18.4541 12.6155 18.8983 11.8217 19.292 11.3076C19.6852 10.7943 19.8862 10.75 20 10.75Z" stroke="#C1C9E5" stroke-width="1.5"/>
</svg>
