<svg width="20" height="20" viewBox="0 0 20 20" fill="none" xmlns="http://www.w3.org/2000/svg">
<path fill-rule="evenodd" clip-rule="evenodd" d="M10.4286 0.869141C10.902 0.869141 11.2858 1.25847 11.2858 1.73872V2.6083H11.7143C14.0811 2.6083 15.9999 4.55463 15.9999 6.95598V9.56493C15.9999 10.2064 16.1995 10.9321 16.5164 11.6648C16.8299 12.3895 17.2353 13.0688 17.593 13.6032C18.244 14.5758 17.8409 16.113 16.5094 16.3566C15.6387 16.5159 14.4082 16.7055 12.9601 16.8283C12.9618 16.8707 12.9627 16.9134 12.9627 16.9564C12.9627 18.6373 11.6196 19.9999 9.96279 19.9999C8.30597 19.9999 6.96286 18.6373 6.96286 16.9564C6.96286 16.9113 6.96381 16.8664 6.96569 16.8218C5.54981 16.699 4.3465 16.5131 3.49084 16.3566C2.1593 16.113 1.75619 14.5758 2.40718 13.6032C2.76494 13.0688 3.17027 12.3895 3.48372 11.6648C3.80068 10.9321 4.00022 10.2064 4.00022 9.56493V6.95598C4.00022 4.55463 5.91906 2.6083 8.28583 2.6083H8.71439V1.73872C8.71439 1.25847 9.09812 0.869141 9.57151 0.869141H10.4286ZM10.0001 16.9564C9.56183 16.9564 9.13249 16.9475 8.71465 16.9316C8.70788 17.631 9.26801 18.2229 9.96279 18.2229C10.656 18.2229 11.2169 17.6327 11.211 16.9343C10.8167 16.9485 10.4123 16.9564 10.0001 16.9564ZM11.7143 4.34745C13.1345 4.34745 14.2857 5.51528 14.2857 6.95598V9.56493C14.2857 10.5418 14.581 11.5183 14.9467 12.3638C15.3159 13.2172 15.7811 13.992 16.1748 14.5802C16.1835 14.5933 16.1876 14.6058 16.189 14.6183C16.1902 14.6295 16.1892 14.64 16.1871 14.6483C14.8305 14.8957 12.5711 15.2172 10.0001 15.2172C7.42914 15.2172 5.16968 14.8957 3.81311 14.6483C3.81097 14.64 3.80994 14.6295 3.81114 14.6183C3.8126 14.6058 3.81663 14.5933 3.82537 14.5802C4.21904 13.992 4.68429 13.2172 5.05345 12.3638C5.41919 11.5183 5.71447 10.5418 5.71447 9.56493V6.95598C5.71447 5.51528 6.86567 4.34745 8.28583 4.34745H11.7143Z" fill="#C1C9E5"/>
<path fill-rule="evenodd" clip-rule="evenodd" d="M6.54548 0.657945C6.43208 0.197599 5.9586 -0.0898287 5.5051 0.0254801C5.44562 0.0406758 5.38922 0.0575146 5.29262 0.0904828C5.17442 0.130807 5.0126 0.19187 4.82052 0.279366C4.43738 0.453887 3.9268 0.736789 3.4013 1.17587C2.33426 2.0674 1.24315 3.57438 1.0041 5.9998C0.956955 6.47768 1.30066 6.90381 1.77165 6.95159C2.24264 6.99939 2.66271 6.65073 2.70977 6.17286C2.89928 4.25038 3.73677 3.14861 4.49104 2.51838C4.87623 2.19658 5.24959 1.99034 5.52267 1.86595C5.6587 1.80398 5.76807 1.76314 5.83904 1.73893C5.86818 1.72898 5.89749 1.71959 5.92715 1.71111C6.38322 1.59237 6.6599 1.12208 6.54548 0.657945Z" fill="#C1C9E5"/>
<path fill-rule="evenodd" clip-rule="evenodd" d="M13.4542 0.658801C13.569 0.192885 14.0344 -0.09039 14.4937 0.026089C14.5535 0.0413041 14.61 0.0581906 14.7071 0.0913381C14.8253 0.131662 14.9871 0.192725 15.1792 0.280221C15.5624 0.454742 16.0729 0.737644 16.5985 1.17672C17.6655 2.06826 18.7566 3.57523 18.9957 6.00065C19.0428 6.47852 18.6991 6.90466 18.2281 6.95244C17.7571 7.00022 17.337 6.65158 17.2899 6.17371C17.1004 4.25123 16.263 3.14947 15.5087 2.51923C15.1235 2.19744 14.7502 1.9912 14.4771 1.86681C14.3411 1.80484 14.2317 1.76399 14.1607 1.73979C14.1316 1.72984 14.1022 1.72045 14.0726 1.71197C13.6165 1.59323 13.3399 1.12293 13.4542 0.658801Z" fill="#C1C9E5"/>
</svg>
