<svg width="20" height="20" viewBox="0 0 20 20" fill="none" xmlns="http://www.w3.org/2000/svg">
<g clip-path="url(#clip0_18_1112)">
<path d="M14.9557 8.19332C14.5973 8.38341 14.3069 8.81998 14.3069 9.16863C14.3069 9.5171 14.5973 9.64569 14.9557 9.45585C15.3138 9.26579 15.6045 8.82898 15.6045 8.48051C15.6045 8.13185 15.3138 8.00323 14.9557 8.19332Z" fill="#C1C9E5"/>
<path d="M14.9557 10.2479C14.5973 10.438 14.3069 10.8746 14.3069 11.2233C14.3069 11.5719 14.5973 11.7005 14.9557 11.5105C15.3138 11.3204 15.6045 10.8836 15.6045 10.5352C15.6045 10.1867 15.3138 10.0579 14.9557 10.2479Z" fill="#C1C9E5"/>
<path d="M11.8024 11.2576C12.1605 11.0675 12.4512 10.631 12.4512 10.2823C12.4512 9.93359 12.1605 9.805 11.8024 9.99506C11.4438 10.1852 11.1536 10.6217 11.1536 10.9704C11.1536 11.3191 11.4438 11.4477 11.8024 11.2576Z" fill="#C1C9E5"/>
<path d="M14.9557 12.3038C14.5973 12.4936 14.3069 12.9304 14.3069 13.2789C14.3069 13.6276 14.5973 13.7562 14.9557 13.5661C15.3138 13.376 15.6045 12.9394 15.6045 12.5908C15.6045 12.2423 15.3138 12.1137 14.9557 12.3038Z" fill="#C1C9E5"/>
<path d="M11.8021 14.1062C11.4436 14.2965 11.1533 14.7331 11.1533 15.0815C11.1533 15.4302 11.4435 15.5588 11.8021 15.3687C12.1603 15.1788 12.4509 14.7421 12.4509 14.3934C12.4509 14.0449 12.1603 13.9163 11.8021 14.1062Z" fill="#C1C9E5"/>
<path d="M11.8417 12.0509C11.4834 12.241 11.1931 12.6776 11.1931 13.0263C11.1931 13.3749 11.4833 13.5035 11.8417 13.3135C12.2001 13.1234 12.4907 12.6868 12.4907 12.3381C12.4907 11.9894 12.2001 11.8608 11.8417 12.0509Z" fill="#C1C9E5"/>
<path d="M16.143 5.30006L10.97 2.28091C10.6492 2.09356 10.288 2 9.9273 2C9.56677 2 9.20542 2.09356 8.88475 2.28091L3.71161 5.30006C3.10099 5.6565 2.72729 6.29847 2.72729 6.99122V13.0088C2.72729 13.7015 3.10095 14.3435 3.71161 14.6999L8.88478 17.7191C9.20542 17.9062 9.56677 18 9.9273 18C10.288 18 10.6492 17.9062 10.97 17.7191L16.143 14.6999C16.7534 14.3435 17.1273 13.7015 17.1273 13.0088V6.99122C17.1273 6.29847 16.7534 5.6565 16.143 5.30006ZM9.75351 17.3979C9.56029 17.3746 9.37057 17.3129 9.19742 17.212L4.02424 14.1928C3.59666 13.9432 3.33512 13.4938 3.33512 13.0088V6.99122C3.33512 6.80303 3.37501 6.62053 3.44792 6.45266L9.75354 10.1327L9.75351 17.3979ZM3.62123 6.15981C3.7295 6.02031 3.86532 5.89988 4.02424 5.80713L9.19742 2.78797C9.42211 2.65684 9.67459 2.59141 9.9273 2.59141C10.18 2.59141 10.4323 2.65688 10.6572 2.78797L15.8303 5.80713C15.9892 5.89988 16.1251 6.02028 16.2333 6.15981L9.9273 9.84003L3.62123 6.15981ZM16.5193 13.0088C16.5193 13.4938 16.2579 13.9432 15.8303 14.1928L10.6572 17.212C10.4841 17.3129 10.2945 17.3746 10.1011 17.3979V10.1327L16.4067 6.45269C16.4796 6.62053 16.5193 6.80306 16.5193 6.99125V13.0088H16.5193Z" fill="#C1C9E5"/>
<path d="M10.5537 3.39584C10.238 3.16866 9.71771 3.16275 9.3919 3.38325C9.0661 3.60353 9.05791 3.96691 9.3736 4.19412C9.68948 4.42153 10.2094 4.42741 10.5352 4.20694C10.8607 3.98641 10.8694 3.62344 10.5537 3.39584Z" fill="#C1C9E5"/>
<path d="M13.9852 5.61773C13.6696 5.39011 13.1495 5.38442 12.8237 5.6047C12.4981 5.82498 12.4897 6.18836 12.8054 6.41558C13.1213 6.64298 13.6411 6.64867 13.9669 6.42858C14.2927 6.20786 14.3011 5.84514 13.9852 5.61773Z" fill="#C1C9E5"/>
<path d="M7.02532 5.54937C6.70964 5.32193 6.18958 5.31628 5.86378 5.53656C5.53775 5.75706 5.52956 6.12 5.84525 6.34743C6.1609 6.57506 6.68102 6.58053 7.00701 6.36025C7.33256 6.13975 7.34097 5.77681 7.02532 5.54937Z" fill="#C1C9E5"/>
<path d="M10.4542 7.77096C10.1383 7.54353 9.61821 7.53787 9.29263 7.75815C8.96683 7.97865 8.95842 8.34159 9.27426 8.569C9.59017 8.79662 10.1098 8.80231 10.4358 8.58181C10.7614 8.36153 10.7699 7.99859 10.4542 7.77096Z" fill="#C1C9E5"/>
<path d="M10.4889 5.59719C10.1838 5.37754 9.68161 5.37188 9.36657 5.58482C9.05175 5.79775 9.04401 6.14854 9.34887 6.36819C9.65399 6.58782 10.1564 6.5935 10.4714 6.38057C10.786 6.16763 10.794 5.81685 10.4889 5.59719Z" fill="#C1C9E5"/>
<path d="M4.57486 9.75946C4.93323 9.94955 5.22389 9.82074 5.22389 9.47227C5.22389 9.12358 4.93323 8.68699 4.57486 8.49692C4.21674 8.30686 3.92627 8.43546 3.92627 8.78414C3.92627 9.13258 4.21674 9.56936 4.57486 9.75946Z" fill="#C1C9E5"/>
<path d="M8.19424 15.2057C8.55258 15.3958 8.84283 15.2672 8.84283 14.9185C8.84283 14.5701 8.55258 14.1333 8.19424 13.9432C7.83587 13.7533 7.54565 13.8819 7.54565 14.2304C7.54565 14.5791 7.83587 15.0157 8.19424 15.2057Z" fill="#C1C9E5"/>
<path d="M6.38711 12.4839C6.74545 12.674 7.03589 12.5454 7.03589 12.1968C7.03589 11.8483 6.74545 11.4115 6.38711 11.2216C6.02874 11.0316 5.73853 11.1602 5.73853 11.5086C5.73853 11.8573 6.02874 12.2939 6.38711 12.4839Z" fill="#C1C9E5"/>
</g>
<defs>
<clipPath id="clip0_18_1112">
<rect width="16" height="16" fill="white" transform="translate(2 2)"/>
</clipPath>
</defs>
</svg>
