<svg width="16" height="16" viewBox="0 0 16 16" fill="none" xmlns="http://www.w3.org/2000/svg">
<path d="M15.7538 5.92443C15.7538 6.86671 14.9898 7.63077 14.0475 7.63077H1.70634C0.764062 7.63077 0 6.86671 0 5.92443V1.70634C0 0.764062 0.764062 0 1.70634 0H14.0478C14.99 0 15.7541 0.764062 15.7541 1.70634L15.7538 5.92443ZM14.7692 1.70634C14.7692 1.30782 14.446 0.984615 14.0475 0.984615H1.70634C1.30782 0.984615 0.984615 1.30782 0.984615 1.70634V5.92468C0.984615 6.3232 1.30782 6.6464 1.70634 6.6464H14.0478C14.4463 6.6464 14.7695 6.3232 14.7695 5.92468L14.7692 1.70634Z" fill="#C1C9E5"/>
<path d="M10.5846 14.2936C10.5846 15.2358 9.82055 15.9999 8.87828 15.9999H1.70634C0.764062 15.9999 0 15.2358 0 14.2936V10.0755C0 9.1332 0.764062 8.36914 1.70634 8.36914H8.87852C9.8208 8.36914 10.5849 9.1332 10.5849 10.0755L10.5846 14.2936ZM9.6 10.0755C9.6 9.67696 9.2768 9.35376 8.87828 9.35376H1.70634C1.30782 9.35376 0.984615 9.67696 0.984615 10.0755V14.2938C0.984615 14.6923 1.30782 15.0155 1.70634 15.0155H8.87852C9.27705 15.0155 9.60025 14.6923 9.60025 14.2938L9.6 10.0755Z" fill="#C1C9E5"/>
<path d="M15.9999 14.2936C15.9999 15.2358 15.2358 15.9999 14.2935 15.9999H13.029C12.0868 15.9999 11.3227 15.2358 11.3227 14.2936V10.0755C11.3227 9.1332 12.0868 8.36914 13.029 8.36914H14.2935C15.2358 8.36914 15.9999 9.1332 15.9999 10.0755V14.2936ZM15.0152 10.0755C15.0152 9.67696 14.692 9.35376 14.2935 9.35376H13.029C12.6305 9.35376 12.3073 9.67696 12.3073 10.0755V14.2938C12.3073 14.6923 12.6305 15.0155 13.029 15.0155H14.2935C14.692 15.0155 15.0152 14.6923 15.0152 14.2938V10.0755Z" fill="#C1C9E5"/>
</svg>
