<svg width="18" height="16" viewBox="0 0 18 16" fill="none" xmlns="http://www.w3.org/2000/svg">
<path d="M3.38306 5.97444C1.79435 5.27939 1 4.93186 1 4.5C1 4.06814 1.79435 3.72061 3.38306 3.02555L5.62984 2.04259C7.21854 1.34753 8.01288 1 9 1C9.98712 1 10.7814 1.34753 12.3702 2.04259L14.617 3.02555C16.2057 3.72061 17 4.06814 17 4.5C17 4.93186 16.2057 5.27939 14.617 5.97444L12.3702 6.95744C10.7814 7.65245 9.98712 8 9 8C8.01288 8 7.21854 7.65245 5.62984 6.95744L3.38306 5.97444Z" stroke="#C1C9E5"/>
<path d="M17 8C17 8 16.2057 8.77936 14.617 9.47446L12.3702 10.4574C10.7814 11.1525 9.98712 11.5 9 11.5C8.01288 11.5 7.21854 11.1525 5.62984 10.4574L3.38306 9.47446C1.79435 8.77936 1 8 1 8" stroke="#C1C9E5" stroke-linecap="round"/>
<path d="M17 11.5C17 11.5 16.2057 12.2794 14.617 12.9745L12.3702 13.9574C10.7814 14.6525 9.98712 15 9 15C8.01288 15 7.21854 14.6525 5.62984 13.9574L3.38306 12.9745C1.79435 12.2794 1 11.5 1 11.5" stroke="#C1C9E5" stroke-linecap="round"/>
</svg>
