<svg width="20" height="20" viewBox="0 0 20 20" fill="none" xmlns="http://www.w3.org/2000/svg">
<path d="M10.1098 11C10.0457 10.9908 9.96341 10.9908 9.89024 11C8.28049 10.945 7 9.62595 7 8.00458C7 6.34657 8.33537 5 10 5C11.6555 5 13 6.34657 13 8.00458C12.9909 9.62595 11.7195 10.945 10.1098 11Z" stroke="#C1C9E5" stroke-width="1.5" stroke-linecap="round" stroke-linejoin="round"/>
<path d="M16 16.6055C14.4154 18.0952 12.3145 19 10 19C7.68546 19 5.58457 18.0952 4 16.6055C4.08902 15.7464 4.62315 14.9056 5.57567 14.2475C8.01484 12.5842 12.003 12.5842 14.4243 14.2475C15.3769 14.9056 15.911 15.7464 16 16.6055Z" stroke="#C1C9E5" stroke-width="1.5" stroke-linecap="round" stroke-linejoin="round"/>
<path d="M10 19C14.9706 19 19 14.9706 19 10C19 5.02944 14.9706 1 10 1C5.02944 1 1 5.02944 1 10C1 14.9706 5.02944 19 10 19Z" stroke="#C1C9E5" stroke-width="1.5" stroke-linecap="round" stroke-linejoin="round"/>
</svg>
